<svg id="svg" version="1.1" xmlns="http://www.w3.org/2000/svg" xmlns:xlink="http://www.w3.org/1999/xlink" width="400" height="400" viewBox="0, 0, 400,400"><g id="svgg"><path id="path0" d="M120.480 2.080 C 120.216 2.344,120.000 3.053,120.000 3.656 C 120.000 4.633,119.838 4.765,118.500 4.876 C 117.086 4.993,116.993 5.085,116.877 6.477 C 116.762 7.865,116.665 7.962,115.277 8.077 C 113.889 8.193,113.793 8.289,113.677 9.677 C 113.562 11.065,113.465 11.162,112.077 11.277 C 110.689 11.393,110.593 11.489,110.477 12.877 C 110.362 14.265,110.265 14.362,108.877 14.477 C 107.485 14.593,107.393 14.686,107.276 16.100 C 107.165 17.438,107.033 17.600,106.056 17.600 C 104.664 17.600,104.000 18.265,104.000 19.656 C 104.000 20.853,103.547 21.291,102.246 21.357 C 101.357 21.402,101.319 21.509,100.944 25.078 C 100.728 27.135,100.711 27.157,99.263 27.278 C 97.887 27.393,97.793 27.489,97.676 28.900 C 97.565 30.238,97.433 30.400,96.456 30.400 C 95.007 30.400,94.400 31.073,94.400 32.680 C 94.400 33.696,94.230 34.000,93.662 34.000 C 92.426 34.000,91.565 35.383,91.319 37.759 C 91.102 39.861,91.022 40.000,90.024 40.000 C 88.504 40.000,88.000 40.700,88.000 42.810 C 88.000 44.705,87.171 45.938,85.500 46.528 C 84.991 46.707,84.800 47.212,84.800 48.375 C 84.800 49.639,84.673 49.926,84.195 49.743 C 83.862 49.615,83.351 49.709,83.058 49.952 C 82.766 50.194,82.379 50.260,82.199 50.097 C 82.019 49.933,81.994 50.013,82.142 50.272 C 82.291 50.532,82.254 50.843,82.059 50.963 C 81.865 51.084,81.682 52.206,81.653 53.457 C 81.593 56.082,81.676 55.908,80.393 56.084 C 78.859 56.294,78.517 56.666,78.560 58.072 L 78.600 59.370 81.753 59.805 C 84.712 60.214,85.010 60.185,86.609 59.334 C 87.546 58.835,89.564 58.080,91.093 57.657 C 92.622 57.233,94.444 56.591,95.141 56.231 C 95.838 55.870,98.093 55.137,100.151 54.603 C 102.210 54.068,104.807 53.270,105.923 52.831 C 107.038 52.391,109.717 51.673,111.876 51.236 C 114.034 50.800,116.805 50.093,118.034 49.665 C 119.262 49.238,122.232 48.586,124.634 48.217 C 127.035 47.848,130.800 47.115,133.000 46.588 C 135.200 46.061,140.510 45.253,144.800 44.794 C 149.090 44.334,154.130 43.701,156.000 43.387 C 168.225 41.334,207.487 41.461,221.000 43.596 C 223.640 44.013,227.870 44.552,230.400 44.793 C 236.987 45.420,240.738 45.965,242.800 46.594 C 248.092 48.207,256.627 48.643,258.032 47.371 C 258.454 46.989,258.800 46.800,258.800 46.952 C 258.800 47.104,259.160 47.035,259.600 46.800 C 261.649 45.704,259.908 43.657,256.641 43.319 C 254.539 43.102,254.400 43.022,254.400 42.024 C 254.400 40.385,253.704 40.000,250.744 40.000 L 248.048 40.000 247.924 38.500 C 247.803 37.041,247.753 36.997,246.081 36.876 C 244.709 36.777,244.290 36.564,244.007 35.818 C 243.572 34.675,241.526 33.600,239.783 33.600 C 238.629 33.600,238.462 33.453,238.235 32.244 C 237.943 30.692,237.319 30.414,234.100 30.405 C 232.023 30.400,231.711 30.148,231.960 28.679 C 232.031 28.261,230.939 27.169,230.521 27.240 C 227.903 27.684,225.600 27.141,225.600 26.080 C 225.600 24.380,224.928 24.000,221.920 24.000 C 219.329 24.000,218.461 23.424,219.300 22.261 C 219.781 21.595,218.066 20.915,215.713 20.839 C 212.641 20.740,212.778 20.798,212.693 19.545 C 212.627 18.571,211.888 17.544,211.321 17.640 C 208.530 18.114,206.480 17.551,206.235 16.244 C 205.922 14.577,205.411 14.413,200.524 14.405 L 196.848 14.400 196.724 12.900 L 196.600 11.400 193.443 11.200 C 190.318 11.002,190.285 10.988,190.166 9.856 C 189.995 8.232,189.998 8.233,185.276 8.068 C 180.436 7.898,180.778 7.997,180.693 6.745 C 180.627 5.771,179.888 4.744,179.321 4.840 C 179.145 4.870,177.250 4.873,175.111 4.847 L 171.223 4.800 170.889 3.513 C 170.663 2.641,170.240 2.138,169.578 1.953 C 167.710 1.431,121.008 1.552,120.480 2.080 M267.010 48.783 C 266.867 49.016,267.038 49.317,267.392 49.452 C 268.272 49.790,268.546 49.419,267.845 48.838 C 267.451 48.510,267.189 48.493,267.010 48.783 M276.174 50.357 C 276.324 50.601,276.282 50.800,276.079 50.800 C 275.877 50.800,275.797 51.250,275.902 51.800 C 276.204 53.379,279.296 53.314,279.085 51.734 C 279.006 51.147,278.662 50.627,278.320 50.577 C 277.979 50.526,277.294 50.357,276.799 50.200 C 276.187 50.005,275.987 50.056,276.174 50.357 M286.400 53.885 C 286.400 54.168,286.237 54.400,286.037 54.400 C 285.838 54.400,285.769 54.760,285.884 55.200 C 286.191 56.375,289.002 56.365,289.091 55.188 C 289.133 54.630,288.940 54.411,288.476 54.488 C 288.032 54.562,287.838 54.368,287.912 53.924 C 287.989 53.460,287.770 53.267,287.212 53.309 C 286.765 53.343,286.400 53.602,286.400 53.885 M296.047 56.771 C 295.763 56.946,295.547 57.204,295.566 57.345 C 295.585 57.485,295.586 57.645,295.569 57.700 C 295.146 59.082,295.298 59.240,296.932 59.121 C 298.494 59.008,299.067 58.422,297.974 58.058 C 297.658 57.953,297.602 58.089,297.813 58.448 C 297.992 58.752,297.747 58.657,297.269 58.238 C 296.369 57.449,296.100 56.967,296.800 57.400 C 297.020 57.536,297.200 57.467,297.200 57.247 C 297.200 56.648,296.628 56.412,296.047 56.771 M302.041 60.200 C 301.882 60.420,301.784 60.825,301.825 61.100 C 301.866 61.375,301.923 61.780,301.950 62.000 C 302.073 62.980,305.000 62.436,305.000 61.433 C 305.000 60.902,304.820 60.497,304.600 60.533 C 304.380 60.570,304.230 60.420,304.267 60.200 C 304.303 59.980,303.883 59.800,303.333 59.800 C 302.782 59.800,302.201 59.980,302.041 60.200 M73.351 60.984 C 73.022 61.841,73.523 62.400,74.619 62.400 C 75.389 62.400,75.575 62.208,75.515 61.481 C 75.427 60.417,73.719 60.025,73.351 60.984 M66.486 64.450 C 66.456 65.500,66.573 65.600,67.827 65.600 C 68.870 65.600,69.199 65.432,69.194 64.900 C 69.177 62.932,66.542 62.494,66.486 64.450 M308.715 64.400 C 308.549 65.528,308.618 65.600,309.869 65.600 C 311.439 65.600,311.532 65.251,310.274 64.070 C 309.069 62.938,308.925 62.968,308.715 64.400 M61.200 66.468 C 61.200 66.698,60.921 66.778,60.579 66.647 C 60.189 66.498,60.059 66.573,60.230 66.849 C 60.380 67.091,60.276 67.429,60.000 67.600 C 59.159 68.120,59.965 68.800,61.423 68.800 C 62.734 68.800,62.795 68.737,62.700 67.478 C 62.607 66.253,61.200 65.305,61.200 66.468 M321.467 69.467 C 320.443 70.490,321.238 72.000,322.800 72.000 C 324.361 72.000,325.017 71.228,323.993 70.596 C 323.770 70.458,323.708 70.149,323.855 69.911 C 324.009 69.661,323.939 69.591,323.689 69.745 C 323.451 69.892,323.142 69.830,323.004 69.607 C 322.719 69.145,321.866 69.068,321.467 69.467 M52.232 72.939 C 52.380 73.326,52.211 73.500,51.727 73.460 C 51.250 73.421,51.021 73.650,51.060 74.127 C 51.100 74.611,50.926 74.780,50.539 74.632 C 50.220 74.509,50.051 74.560,50.165 74.743 C 50.783 75.743,52.745 75.138,52.711 73.958 C 52.693 73.305,52.527 72.679,52.343 72.565 C 52.160 72.451,52.109 72.620,52.232 72.939 M327.879 72.654 C 326.829 73.704,327.630 75.200,329.243 75.200 C 330.651 75.200,330.844 75.100,330.595 74.500 C 330.435 74.115,330.296 73.605,330.286 73.367 C 330.275 73.128,330.072 72.925,329.833 72.914 C 329.595 72.904,329.121 72.778,328.779 72.635 C 328.438 72.492,328.033 72.501,327.879 72.654 M191.854 75.085 C 191.253 75.239,191.150 75.537,191.325 76.615 C 191.444 77.351,191.378 78.008,191.178 78.076 C 190.977 78.144,191.787 78.234,192.978 78.276 C 195.306 78.357,196.068 77.882,196.292 76.207 C 196.450 75.028,194.245 74.470,191.854 75.085 M207.876 75.080 C 207.108 75.279,207.025 76.926,207.734 77.900 C 208.711 79.242,212.000 77.813,212.000 76.047 C 212.000 74.995,210.008 74.528,207.876 75.080 M45.300 76.900 C 45.355 77.175,45.175 77.355,44.900 77.300 C 44.625 77.245,44.400 77.470,44.400 77.800 C 44.400 78.173,44.778 78.400,45.400 78.400 C 46.200 78.400,46.400 78.200,46.400 77.400 C 46.400 76.778,46.173 76.400,45.800 76.400 C 45.470 76.400,45.245 76.625,45.300 76.900 M334.400 77.635 C 334.400 78.122,334.678 78.400,335.165 78.400 C 336.116 78.400,336.028 77.110,335.067 76.969 C 334.643 76.906,334.400 77.149,334.400 77.635 M233.060 78.702 C 232.620 79.415,234.694 81.111,235.943 81.060 C 236.634 81.032,237.203 80.827,237.206 80.604 C 237.210 80.336,237.311 80.334,237.506 80.600 C 238.136 81.458,238.723 81.110,238.878 79.786 L 239.039 78.400 236.143 78.400 C 234.550 78.400,233.163 78.536,233.060 78.702 M337.569 78.935 C 336.908 80.324,337.528 81.600,338.865 81.600 C 340.032 81.600,340.308 81.458,340.226 80.900 C 340.170 80.515,339.871 80.200,339.562 80.200 C 339.253 80.200,339.000 79.947,339.000 79.638 C 339.000 79.212,337.734 78.590,337.569 78.935 M38.399 82.135 C 37.037 82.827,36.625 84.278,37.636 84.819 C 39.161 85.636,40.187 85.151,40.321 83.551 C 40.460 81.886,39.819 81.413,38.399 82.135 M154.192 82.368 C 154.248 82.716,154.594 82.974,154.961 82.942 C 155.488 82.896,155.531 83.002,155.165 83.442 C 154.321 84.459,155.242 84.020,156.417 82.845 L 157.572 81.690 155.831 81.713 C 154.477 81.731,154.113 81.877,154.192 82.368 M249.333 82.162 C 249.333 82.498,249.575 82.631,249.936 82.492 C 250.354 82.332,250.468 82.446,250.308 82.864 C 250.169 83.225,250.302 83.467,250.638 83.467 C 250.947 83.467,251.200 83.306,251.200 83.110 C 251.200 82.913,251.383 82.866,251.607 83.004 C 251.830 83.142,251.898 83.442,251.757 83.669 C 251.617 83.897,251.957 83.785,252.514 83.420 C 253.182 82.982,253.615 82.900,253.787 83.178 C 254.267 83.955,254.691 83.610,254.498 82.600 C 254.271 81.413,249.333 80.994,249.333 82.162 M344.000 86.652 C 344.000 87.910,344.088 88.000,345.320 88.000 C 347.486 88.000,347.085 85.468,344.900 85.352 C 344.135 85.311,344.000 85.507,344.000 86.652 M271.070 88.561 C 270.943 88.894,271.168 89.203,271.628 89.323 C 272.052 89.434,272.400 89.782,272.400 90.096 C 272.400 90.584,273.054 90.693,274.400 90.427 C 274.510 90.406,274.330 90.213,274.000 90.000 C 273.600 89.742,273.567 89.610,273.900 89.606 C 274.175 89.603,274.400 89.240,274.400 88.800 C 274.400 87.816,271.438 87.603,271.070 88.561 M350.400 91.914 L 350.400 94.352 351.900 94.476 C 353.359 94.597,353.401 94.644,353.419 96.200 C 353.436 97.715,353.511 97.811,354.819 98.000 C 356.087 98.184,356.216 98.331,356.400 99.800 C 356.584 101.273,356.711 101.416,357.995 101.600 C 358.999 101.744,359.425 102.025,359.511 102.600 C 359.897 105.171,359.960 105.252,361.477 105.123 C 362.836 105.008,362.930 104.911,362.966 103.602 C 363.011 101.931,362.024 100.764,360.830 101.076 C 360.141 101.256,359.990 101.098,359.939 100.147 C 359.906 99.516,359.860 98.730,359.839 98.401 C 359.817 98.071,359.529 97.783,359.199 97.761 C 358.870 97.740,358.092 97.694,357.472 97.661 C 356.545 97.611,356.367 97.440,356.472 96.700 C 356.639 95.525,355.637 94.524,354.500 94.730 C 353.860 94.846,353.600 94.700,353.600 94.223 C 353.600 93.818,353.417 93.666,353.138 93.838 C 352.866 94.006,352.784 93.949,352.939 93.698 C 353.266 93.169,352.849 92.000,352.334 92.000 C 352.124 92.000,352.081 92.208,352.238 92.462 C 352.409 92.739,352.349 92.815,352.086 92.653 C 351.846 92.505,351.715 92.043,351.795 91.627 C 351.875 91.211,351.594 90.556,351.170 90.173 C 350.418 89.492,350.400 89.533,350.400 91.914 M280.400 92.029 C 280.400 94.484,283.708 94.742,283.875 92.300 C 283.947 91.254,283.864 91.200,282.175 91.200 C 280.646 91.200,280.400 91.315,280.400 92.029 M28.641 92.523 C 28.133 93.030,27.647 93.651,27.559 93.903 C 27.472 94.155,26.698 94.432,25.840 94.519 C 24.474 94.658,24.266 94.815,24.162 95.794 C 23.974 97.552,23.699 97.973,22.846 97.809 C 22.409 97.725,21.824 97.930,21.546 98.265 C 20.881 99.066,20.729 101.187,21.331 101.246 C 21.589 101.272,22.070 101.321,22.400 101.356 C 23.685 101.493,24.400 100.790,24.400 99.386 C 24.400 98.036,24.441 98.000,26.000 98.000 L 27.600 98.000 27.600 96.200 C 27.600 94.410,27.607 94.400,29.000 94.400 C 30.333 94.400,30.400 94.333,30.400 93.000 C 30.400 91.368,29.924 91.239,28.641 92.523 M124.326 95.688 C 123.735 96.299,123.388 96.800,123.556 96.800 C 123.935 96.800,125.799 94.845,125.568 94.689 C 125.476 94.626,124.916 95.076,124.326 95.688 M287.465 95.091 C 287.869 95.384,288.531 96.023,288.935 96.512 C 289.339 97.000,289.553 97.175,289.411 96.900 C 289.006 96.117,289.571 95.478,290.204 96.003 C 290.627 96.355,290.700 96.256,290.558 95.523 L 290.379 94.600 290.851 95.500 C 291.110 95.995,291.497 96.400,291.710 96.400 C 291.946 96.400,291.936 96.204,291.683 95.900 C 291.455 95.625,291.251 95.220,291.230 95.000 C 291.209 94.780,290.188 94.591,288.960 94.579 C 287.004 94.561,286.820 94.624,287.465 95.091 M116.814 98.217 C 117.022 98.468,117.075 98.792,116.930 98.937 C 116.785 99.082,116.800 99.200,116.962 99.200 C 117.263 99.200,118.400 98.179,118.400 97.909 C 118.400 97.827,117.958 97.760,117.417 97.760 C 116.726 97.760,116.547 97.895,116.814 98.217 M299.814 100.777 C 299.709 100.947,299.703 101.495,299.799 101.997 C 300.214 104.152,302.902 104.273,302.726 102.128 C 302.604 100.646,300.499 99.669,299.814 100.777 M110.400 102.165 C 110.400 103.934,112.354 103.703,112.843 101.877 C 113.114 100.862,113.053 100.800,111.765 100.800 C 110.478 100.800,110.400 100.878,110.400 102.165 M19.322 102.500 C 18.508 103.396,17.903 105.079,17.847 106.600 C 17.824 107.241,18.114 107.425,19.309 107.524 L 20.800 107.648 20.800 104.624 C 20.800 101.384,20.599 101.094,19.322 102.500 M108.326 105.288 C 107.735 105.899,107.388 106.400,107.556 106.400 C 107.935 106.400,109.799 104.445,109.568 104.289 C 109.476 104.226,108.916 104.676,108.326 105.288 M303.225 104.754 C 302.900 105.361,302.956 105.497,303.511 105.454 C 303.935 105.421,304.179 105.665,304.146 106.089 C 304.104 106.627,304.247 106.696,304.794 106.403 C 305.179 106.197,305.564 106.097,305.649 106.182 C 305.733 106.267,305.810 105.810,305.818 105.168 C 305.837 103.746,303.927 103.441,303.225 104.754 M306.350 106.792 C 306.050 109.240,306.387 110.034,307.624 109.795 C 308.470 109.632,309.162 110.591,308.986 111.683 C 308.857 112.482,309.808 113.379,310.861 113.450 C 311.268 113.478,311.768 113.522,311.973 113.550 C 312.179 113.578,312.332 114.119,312.314 114.752 C 312.290 115.582,312.662 116.246,313.640 117.123 L 315.000 118.341 315.309 116.283 C 315.702 113.668,315.506 113.200,314.020 113.200 C 312.799 113.200,312.672 113.007,312.311 110.600 C 312.225 110.025,311.799 109.744,310.795 109.600 C 309.677 109.440,309.373 109.202,309.266 108.400 C 309.083 107.032,306.496 105.606,306.350 106.792 M15.225 107.584 C 14.645 107.943,14.243 110.521,14.567 111.811 C 15.029 113.652,17.508 113.087,17.810 111.073 C 18.305 107.772,17.243 106.338,15.225 107.584 M363.085 107.448 C 362.686 107.847,362.727 111.108,363.134 111.359 C 363.318 111.473,364.133 111.611,364.945 111.666 L 366.421 111.765 366.161 114.060 C 365.763 117.585,366.064 118.292,367.943 118.242 L 369.501 118.200 369.472 116.100 C 369.456 114.945,369.299 114.000,369.122 114.000 C 368.945 114.000,368.800 113.746,368.800 113.436 C 368.800 113.125,368.275 112.430,367.634 111.890 C 366.745 111.142,366.434 110.497,366.323 109.173 C 366.180 107.463,364.151 106.382,363.085 107.448 M97.600 112.045 C 97.600 113.682,97.594 113.688,96.300 113.451 C 94.410 113.105,93.839 113.615,94.165 115.356 C 94.409 116.653,95.200 117.432,95.200 116.375 C 95.200 116.141,95.605 116.006,96.100 116.075 C 96.832 116.177,96.977 116.032,96.875 115.300 C 96.806 114.805,96.929 114.400,97.148 114.400 C 97.367 114.400,97.660 114.040,97.800 113.600 C 97.940 113.160,98.235 112.800,98.456 112.800 C 98.972 112.800,100.000 111.776,100.000 111.262 C 100.000 111.045,100.225 110.776,100.500 110.665 C 100.775 110.554,100.235 110.449,99.300 110.432 L 97.600 110.400 97.600 112.045 M13.200 114.013 C 13.200 114.226,12.930 114.400,12.600 114.400 C 12.270 114.400,12.000 114.670,12.000 115.000 C 12.000 115.330,11.809 115.600,11.576 115.600 C 11.343 115.600,11.260 115.773,11.391 115.985 C 11.522 116.197,11.645 117.187,11.665 118.185 C 11.693 119.564,11.857 120.007,12.351 120.031 C 12.708 120.047,13.315 120.122,13.700 120.195 C 14.669 120.381,14.766 114.226,13.800 113.855 C 13.470 113.729,13.200 113.799,13.200 114.013 M91.228 117.900 C 91.252 118.819,91.306 118.874,91.558 118.230 C 91.724 117.806,92.206 117.324,92.630 117.158 C 93.274 116.906,93.219 116.852,92.300 116.828 C 91.353 116.804,91.204 116.953,91.228 117.900 M92.134 118.227 C 92.002 118.572,92.081 119.041,92.310 119.270 C 92.597 119.557,92.706 119.457,92.663 118.943 C 92.622 118.462,92.846 118.219,93.296 118.255 C 93.678 118.285,93.893 118.150,93.772 117.955 C 93.416 117.379,92.394 117.549,92.134 118.227 M315.361 119.758 C 314.809 121.196,316.892 125.600,318.124 125.600 C 318.335 125.600,318.034 125.227,317.454 124.771 C 316.874 124.315,316.400 123.744,316.400 123.501 C 316.400 123.259,316.831 123.465,317.357 123.960 L 318.315 124.859 318.594 122.451 C 318.748 121.126,318.756 119.853,318.613 119.621 C 318.224 118.992,315.613 119.102,315.361 119.758 M88.100 121.111 C 88.100 121.926,88.170 121.996,88.463 121.474 C 88.662 121.117,89.117 120.662,89.474 120.463 C 89.996 120.170,89.926 120.100,89.111 120.100 C 88.296 120.100,88.100 120.296,88.100 121.111 M369.630 120.530 C 369.155 121.005,369.061 123.607,369.450 125.550 C 369.675 126.674,369.846 126.800,371.150 126.800 L 372.600 126.799 372.608 124.100 C 372.618 120.787,371.142 119.018,369.630 120.530 M84.582 123.729 C 84.455 124.237,84.407 124.907,84.475 125.220 C 84.562 125.614,84.107 125.852,83.000 125.995 C 81.488 126.189,81.393 126.281,81.277 127.677 C 81.162 129.065,81.065 129.162,79.677 129.277 C 78.320 129.390,78.189 129.510,78.071 130.751 C 77.814 133.440,80.700 133.341,81.339 130.639 C 81.629 129.413,81.842 129.170,82.477 129.336 C 83.616 129.634,84.754 128.339,84.504 127.030 C 84.392 126.445,84.458 125.996,84.650 126.031 C 84.843 126.066,85.180 126.047,85.400 125.988 C 85.620 125.930,86.160 125.863,86.600 125.841 C 87.120 125.814,87.400 125.520,87.400 125.000 C 87.400 124.560,87.546 123.975,87.724 123.700 C 87.939 123.367,87.805 123.190,87.324 123.170 C 86.926 123.154,86.198 123.066,85.707 122.974 C 85.035 122.848,84.756 123.036,84.582 123.729 M9.928 124.099 C 9.843 124.700,9.478 125.045,8.835 125.136 C 8.293 125.213,8.063 125.392,8.311 125.545 C 8.553 125.695,8.846 126.338,8.961 126.974 C 9.076 127.610,9.368 128.326,9.609 128.565 C 9.926 128.880,9.969 128.779,9.765 128.200 C 9.533 127.543,9.578 127.489,10.021 127.900 C 10.958 128.769,11.200 128.456,11.200 126.371 C 11.200 124.165,10.178 122.339,9.928 124.099 M318.675 126.300 C 317.899 127.650,318.763 131.750,320.106 133.093 L 321.522 134.508 321.803 131.503 C 322.213 127.129,321.883 126.000,320.192 126.000 C 319.452 126.000,318.770 126.135,318.675 126.300 M373.080 129.893 C 372.671 130.610,372.373 135.442,372.617 137.398 C 372.885 139.545,373.972 140.188,375.222 138.938 C 375.720 138.440,375.983 133.637,375.527 133.355 C 375.318 133.226,375.362 132.886,375.630 132.564 C 376.050 132.058,375.882 131.843,375.141 131.939 C 374.999 131.957,374.982 131.590,375.104 131.123 C 375.291 130.410,375.188 130.310,374.463 130.500 C 373.988 130.624,373.692 130.575,373.806 130.390 C 373.920 130.206,373.843 129.950,373.634 129.821 C 373.426 129.692,373.176 129.725,373.080 129.893 M75.200 135.262 C 75.200 137.689,75.211 137.714,75.991 137.009 C 76.425 136.615,76.668 136.109,76.529 135.885 C 76.390 135.660,76.464 135.592,76.693 135.734 C 77.210 136.053,78.157 134.978,77.828 134.445 C 77.695 134.231,77.770 133.942,77.993 133.804 C 78.872 133.261,78.323 132.800,76.800 132.800 L 75.200 132.800 75.200 135.262 M322.111 138.144 C 321.894 138.495,321.894 141.208,322.110 145.400 C 322.132 145.840,322.342 146.332,322.575 146.494 C 322.857 146.689,322.832 146.790,322.500 146.794 C 322.225 146.797,322.000 146.999,322.000 147.243 C 322.000 147.486,322.279 147.578,322.621 147.447 C 323.046 147.284,323.144 147.365,322.932 147.705 C 322.192 148.889,323.244 151.200,324.524 151.200 C 324.735 151.200,324.434 150.827,323.854 150.371 C 323.274 149.915,322.800 149.344,322.800 149.101 C 322.800 148.859,323.240 149.074,323.778 149.579 L 324.755 150.498 324.878 144.949 C 325.036 137.772,325.013 137.647,323.544 137.689 C 322.899 137.708,322.254 137.912,322.111 138.144 M71.867 138.667 C 71.241 139.292,71.590 142.000,72.300 142.031 C 72.685 142.047,73.314 142.121,73.698 142.195 C 74.995 142.443,75.633 139.287,74.400 138.728 C 73.604 138.367,72.200 138.333,71.867 138.667 M68.800 146.176 C 68.800 148.249,69.890 149.549,70.627 148.356 C 70.753 148.153,71.027 148.093,71.238 148.223 C 71.448 148.353,71.594 148.311,71.563 148.130 C 71.531 147.948,71.540 147.710,71.583 147.600 C 71.979 146.588,71.706 144.761,71.132 144.578 C 68.874 143.862,68.800 143.912,68.800 146.176 M65.600 152.770 C 65.600 154.906,65.652 155.024,66.574 154.984 C 69.321 154.864,69.508 150.672,66.771 150.561 C 65.609 150.515,65.600 150.532,65.600 152.770 M375.832 152.500 C 375.754 152.775,375.296 154.080,374.815 155.400 C 374.148 157.233,373.854 159.311,373.571 164.200 C 373.367 167.720,372.933 171.956,372.605 173.614 C 372.278 175.271,371.645 179.411,371.198 182.814 C 370.751 186.216,369.856 190.800,369.208 193.000 C 368.560 195.200,367.828 198.168,367.580 199.595 C 367.333 201.022,366.708 203.194,366.191 204.422 C 365.674 205.649,364.970 207.868,364.626 209.352 C 364.282 210.835,363.563 212.983,363.030 214.125 C 362.496 215.266,361.753 217.280,361.379 218.600 C 361.004 219.920,360.252 221.887,359.706 222.971 C 359.161 224.055,358.448 225.841,358.121 226.941 C 357.794 228.041,357.023 229.855,356.407 230.971 C 355.790 232.087,355.060 233.720,354.784 234.600 C 354.507 235.480,353.858 236.827,353.341 237.593 C 352.823 238.359,352.400 239.143,352.400 239.335 C 352.400 239.722,347.896 248.759,345.400 253.379 C 344.520 255.008,343.191 257.479,342.447 258.871 C 341.703 260.262,340.668 261.909,340.147 262.531 C 339.626 263.153,339.200 263.891,339.200 264.171 C 339.200 264.451,338.673 265.408,338.028 266.297 C 337.384 267.187,336.408 268.800,335.859 269.883 C 335.311 270.965,334.565 272.097,334.202 272.398 C 333.839 272.700,333.171 273.679,332.718 274.573 C 332.264 275.468,331.377 276.856,330.747 277.658 C 330.116 278.459,329.600 279.282,329.600 279.486 C 329.600 279.689,329.005 280.563,328.278 281.428 C 327.551 282.293,326.459 283.810,325.852 284.800 C 324.584 286.866,322.586 289.659,320.000 292.982 C 319.010 294.254,317.660 296.055,317.000 296.984 C 316.340 297.913,315.260 299.333,314.600 300.139 C 313.940 300.946,312.642 302.549,311.715 303.703 C 309.559 306.387,308.355 307.818,304.737 312.000 C 303.120 313.870,300.717 316.658,299.398 318.195 C 296.575 321.485,281.188 337.038,277.974 339.852 C 276.749 340.923,274.690 342.700,273.398 343.800 C 272.106 344.900,270.408 346.434,269.625 347.208 C 268.841 347.983,267.725 348.858,267.144 349.152 C 266.563 349.447,265.882 350.073,265.630 350.544 C 265.377 351.015,264.470 351.803,263.614 352.296 C 262.757 352.788,261.945 353.545,261.807 353.976 C 261.670 354.408,260.578 355.241,259.379 355.828 C 258.026 356.490,257.200 357.149,257.200 357.567 C 257.200 358.550,256.391 359.200,255.169 359.200 C 253.931 359.200,253.334 359.788,253.138 361.200 C 253.031 361.975,252.626 362.318,251.341 362.725 C 249.887 363.185,249.662 363.417,249.524 364.597 C 249.438 365.338,249.497 365.864,249.656 365.765 C 249.815 365.667,250.061 365.775,250.202 366.004 C 250.981 367.264,254.185 366.051,254.293 364.455 C 254.378 363.202,254.247 363.262,257.334 363.066 C 260.423 362.869,260.404 362.879,260.566 361.344 C 260.678 360.295,260.852 360.179,262.672 359.952 C 265.200 359.637,266.328 359.027,266.633 357.810 C 266.834 357.009,267.163 356.821,268.538 356.721 C 270.145 356.604,270.204 356.550,270.324 355.100 L 270.448 353.600 272.724 353.553 C 273.976 353.527,275.145 353.530,275.321 353.560 C 275.739 353.631,276.831 352.539,276.760 352.121 C 276.535 350.797,276.863 350.400,278.183 350.400 C 279.250 350.400,279.951 350.034,281.248 348.800 C 282.477 347.631,283.268 347.200,284.185 347.200 C 285.737 347.200,286.400 346.577,286.400 345.120 C 286.400 344.105,286.532 344.000,287.813 344.000 C 289.951 344.000,291.928 343.027,292.229 341.826 C 292.438 340.993,292.726 340.800,293.763 340.800 C 295.329 340.800,296.000 340.183,296.000 338.744 C 296.000 337.767,296.162 337.635,297.500 337.524 C 298.919 337.407,299.007 337.319,299.124 335.900 C 299.248 334.403,299.252 334.400,301.124 334.367 C 304.951 334.299,305.270 334.175,305.434 332.700 C 305.488 332.205,305.548 331.676,305.567 331.524 C 305.585 331.372,306.275 331.192,307.100 331.124 C 308.514 331.007,308.607 330.915,308.723 329.523 C 308.838 328.135,308.935 328.038,310.323 327.923 C 311.715 327.807,311.807 327.714,311.924 326.300 L 312.048 324.800 313.998 324.800 C 316.774 324.800,317.875 324.282,318.195 322.824 C 318.374 322.006,318.718 321.583,319.232 321.550 C 320.517 321.466,320.721 321.413,321.067 321.067 C 321.413 320.720,321.467 320.517,321.550 319.224 C 321.588 318.628,321.947 318.420,323.100 318.324 C 324.514 318.207,324.607 318.115,324.723 316.723 C 324.838 315.335,324.935 315.238,326.323 315.123 C 327.711 315.007,327.807 314.911,327.923 313.523 C 328.038 312.135,328.135 312.038,329.523 311.923 C 330.915 311.807,331.007 311.714,331.124 310.300 C 331.242 308.879,331.321 308.800,332.637 308.800 C 334.741 308.800,336.729 307.822,337.026 306.641 C 337.265 305.688,338.237 305.078,339.600 305.024 C 339.930 305.011,340.219 304.619,340.243 304.154 C 340.307 302.892,340.706 302.447,342.099 302.086 C 343.052 301.839,343.438 301.458,343.679 300.527 C 343.966 299.419,344.730 298.852,346.200 298.654 C 346.420 298.624,346.615 298.420,346.634 298.200 C 346.713 297.248,347.623 295.596,348.090 295.554 C 348.371 295.528,348.870 295.483,349.200 295.454 C 349.531 295.424,349.821 294.982,349.847 294.467 C 349.907 293.275,350.875 292.307,352.067 292.247 C 352.597 292.220,353.010 291.941,353.024 291.600 C 353.078 290.237,353.688 289.265,354.641 289.026 C 355.822 288.729,356.800 286.741,356.800 284.637 C 356.800 283.321,356.879 283.242,358.300 283.124 C 359.714 283.007,359.807 282.915,359.923 281.523 C 360.038 280.135,360.135 280.038,361.523 279.923 C 362.911 279.807,363.007 279.711,363.123 278.323 C 363.238 276.935,363.335 276.838,364.723 276.723 C 366.115 276.607,366.207 276.514,366.324 275.100 C 366.392 274.275,366.572 273.585,366.724 273.567 C 366.876 273.548,367.422 273.487,367.937 273.431 C 369.134 273.300,369.455 272.754,369.535 270.713 C 369.604 268.954,370.420 267.730,371.900 267.164 C 372.598 266.897,372.800 266.503,372.800 265.410 C 372.800 264.186,372.932 263.993,373.800 263.950 C 374.350 263.923,375.013 263.877,375.274 263.850 C 375.534 263.822,375.811 263.170,375.890 262.400 C 376.092 260.404,376.294 259.984,376.933 260.230 C 377.650 260.505,378.913 259.270,378.640 258.561 C 378.527 258.267,378.607 257.919,378.817 257.789 C 379.028 257.659,379.200 256.843,379.200 255.976 C 379.200 254.667,379.335 254.400,380.000 254.400 C 382.006 254.400,382.260 254.024,382.361 250.913 C 382.463 247.750,382.270 248.105,384.000 247.908 L 385.400 247.749 385.535 244.774 C 385.693 241.283,385.479 241.704,387.200 241.507 C 387.970 241.419,388.623 241.134,388.650 240.874 C 388.678 240.613,388.723 239.230,388.750 237.800 C 388.798 235.327,388.848 235.200,389.771 235.200 C 391.655 235.200,392.000 234.330,392.000 229.584 C 392.000 225.857,392.088 225.259,392.605 225.457 C 392.938 225.585,393.449 225.491,393.742 225.248 C 394.034 225.006,394.421 224.940,394.601 225.103 C 394.781 225.267,394.806 225.187,394.658 224.928 C 394.509 224.668,394.563 224.346,394.778 224.213 C 395.024 224.062,395.178 217.280,395.192 206.051 C 395.216 186.545,395.119 185.606,393.005 184.802 C 392.098 184.457,392.025 184.210,391.916 181.116 L 391.800 177.800 390.329 177.678 L 388.858 177.555 388.655 174.078 C 388.544 172.165,388.429 170.297,388.400 169.927 C 388.342 169.200,387.497 168.334,386.942 168.433 C 385.943 168.613,385.692 168.187,385.491 165.970 C 385.259 163.411,384.431 162.000,383.161 162.000 C 382.606 162.000,382.419 161.620,382.323 160.300 C 382.204 158.650,382.156 158.596,380.700 158.476 L 379.200 158.352 379.200 155.656 C 379.200 154.092,378.998 152.758,378.720 152.480 C 378.088 151.848,376.014 151.862,375.832 152.500 M9.134 157.654 C 8.165 158.009,8.101 158.157,8.429 159.301 C 8.687 160.200,8.649 160.651,8.295 160.880 C 7.730 161.245,8.705 162.106,9.281 161.750 C 9.456 161.642,9.600 161.743,9.600 161.976 C 9.600 162.209,9.392 162.400,9.138 162.400 C 8.873 162.400,8.977 162.733,9.384 163.182 C 10.559 164.481,11.200 163.368,11.200 160.029 C 11.200 157.013,11.123 156.925,9.134 157.654 M62.484 161.263 C 62.584 164.067,62.703 164.541,63.331 164.632 C 65.109 164.890,65.453 163.774,65.222 158.500 C 65.209 158.198,64.638 158.000,63.784 158.000 L 62.368 158.000 62.484 161.263 M12.263 172.100 C 12.364 172.265,12.237 172.400,11.981 172.400 C 11.714 172.400,11.621 172.679,11.764 173.051 C 11.901 173.409,11.809 173.949,11.558 174.251 C 11.216 174.662,11.218 174.940,11.565 175.358 C 11.820 175.665,11.977 176.160,11.914 176.458 C 11.848 176.774,12.080 176.954,12.470 176.889 C 12.838 176.829,13.254 176.964,13.393 177.189 C 14.045 178.244,14.400 177.351,14.400 174.657 L 14.400 171.715 13.239 171.757 C 12.601 171.781,12.162 171.935,12.263 172.100 M14.758 181.300 C 14.600 184.668,14.643 185.496,14.963 185.299 C 15.163 185.176,15.230 185.440,15.114 185.887 C 14.941 186.546,15.054 186.659,15.713 186.486 C 16.226 186.352,16.428 186.431,16.262 186.700 C 16.096 186.968,16.295 187.048,16.799 186.916 C 17.515 186.729,17.600 186.371,17.600 183.553 L 17.600 180.400 16.200 180.400 C 15.027 180.400,14.793 180.546,14.758 181.300 M17.978 190.500 C 17.966 190.775,17.909 191.765,17.852 192.700 C 17.795 193.635,17.864 194.400,18.006 194.400 C 18.147 194.400,18.249 194.805,18.232 195.300 C 18.208 195.985,18.415 196.192,19.100 196.168 C 19.595 196.151,20.000 196.286,20.000 196.468 C 20.000 196.651,20.180 196.800,20.400 196.800 C 20.635 196.800,20.800 195.400,20.800 193.400 L 20.800 190.000 19.400 190.000 C 18.558 190.000,17.991 190.199,17.978 190.500 M21.643 198.363 C 20.959 198.798,20.724 202.306,21.352 202.694 C 22.619 203.477,23.950 203.138,24.207 201.967 C 24.496 200.654,24.113 198.400,23.601 198.400 C 23.416 198.400,23.026 198.312,22.733 198.204 C 22.440 198.097,21.949 198.168,21.643 198.363 M62.400 205.372 C 62.400 206.051,62.673 206.359,63.400 206.498 C 63.950 206.603,64.400 206.632,64.400 206.563 C 64.400 206.493,63.950 205.986,63.400 205.436 L 62.400 204.436 62.400 205.372 M24.258 205.906 C 23.962 206.385,24.234 209.214,24.572 209.165 C 24.739 209.141,25.375 209.601,25.986 210.186 L 27.097 211.251 27.293 208.925 C 27.401 207.646,27.405 206.375,27.302 206.100 C 27.100 205.562,24.571 205.400,24.258 205.906 M27.991 213.978 C 28.151 214.540,28.228 215.359,28.162 215.797 C 28.042 216.595,29.402 218.400,30.124 218.400 C 30.335 218.400,30.034 218.027,29.454 217.571 C 28.874 217.115,28.400 216.544,28.400 216.301 C 28.400 216.059,28.850 216.283,29.400 216.800 L 30.400 217.739 30.400 215.257 L 30.400 212.775 29.050 212.866 C 27.807 212.950,27.724 213.037,27.991 213.978 M30.686 218.648 C 29.877 219.457,30.912 222.853,32.369 224.172 C 33.469 225.167,33.503 225.099,33.663 221.600 L 33.800 218.600 32.386 218.481 C 31.608 218.415,30.843 218.490,30.686 218.648 M317.215 223.154 C 315.280 223.694,315.457 226.469,317.403 226.097 C 318.262 225.933,318.400 225.692,318.400 224.353 C 318.400 223.499,318.355 222.818,318.300 222.840 C 318.245 222.862,317.757 223.003,317.215 223.154 M33.909 226.300 C 34.369 228.851,36.600 229.367,36.877 226.988 C 37.079 225.257,37.026 225.200,35.189 225.200 C 33.795 225.200,33.722 225.263,33.909 226.300 M36.986 231.691 C 36.367 233.305,37.500 235.099,39.099 235.040 C 41.121 234.966,40.744 231.445,38.697 231.276 C 37.710 231.194,37.122 231.337,36.986 231.691 M314.000 233.025 C 314.000 233.356,313.636 233.760,313.192 233.925 C 312.205 234.290,312.837 235.352,314.300 235.787 C 315.410 236.116,315.702 233.078,314.600 232.655 C 314.231 232.514,314.000 232.656,314.000 233.025 M40.722 237.236 C 39.829 237.735,39.912 239.912,40.861 240.861 C 42.104 242.104,43.602 241.573,43.595 239.892 C 43.583 237.092,42.601 236.184,40.722 237.236 M72.000 240.532 C 72.000 241.906,72.129 241.974,74.114 241.651 C 75.003 241.506,74.085 239.452,73.070 239.316 C 72.092 239.185,72.000 239.289,72.000 240.532 M43.529 243.230 C 43.443 244.126,43.506 244.942,43.669 245.043 C 43.832 245.143,43.873 245.467,43.760 245.761 C 43.493 246.456,44.744 247.707,45.439 247.440 C 46.329 247.099,46.376 247.553,46.431 257.044 C 46.459 262.080,46.632 266.560,46.813 267.000 C 46.995 267.440,47.156 267.676,47.172 267.526 C 47.187 267.375,47.708 267.735,48.329 268.326 L 49.457 269.400 49.544 275.462 C 49.592 278.797,49.724 281.947,49.837 282.462 C 49.950 282.978,50.099 283.811,50.168 284.313 C 50.326 285.469,50.583 285.718,51.700 285.799 C 52.572 285.862,52.608 286.033,52.852 291.232 C 53.187 298.380,53.227 298.591,54.246 298.643 C 55.866 298.725,56.000 299.099,56.000 303.544 C 56.000 308.216,56.231 308.800,58.080 308.800 L 59.200 308.800 59.250 312.800 C 59.318 318.247,59.255 318.060,61.108 318.308 C 62.492 318.493,62.356 318.045,62.429 322.667 C 62.498 327.104,62.680 327.679,64.063 327.831 C 64.578 327.887,65.135 327.948,65.300 327.967 C 65.465 327.985,65.600 329.356,65.600 331.013 C 65.600 333.521,65.717 334.066,66.300 334.272 C 68.063 334.895,68.800 336.076,68.800 338.283 C 68.800 341.095,69.645 343.096,70.974 343.429 C 71.857 343.651,72.000 343.905,72.000 345.256 C 72.000 347.519,72.943 349.520,74.153 349.824 C 74.996 350.035,75.177 350.344,75.279 351.738 C 75.396 353.345,75.450 353.404,76.900 353.524 L 78.400 353.648 78.450 356.024 C 78.512 358.970,78.524 359.058,78.933 359.467 C 79.282 359.815,79.485 359.868,80.800 359.950 C 81.431 359.989,81.600 360.283,81.600 361.339 C 81.600 363.135,82.666 365.169,83.842 365.616 C 84.691 365.939,85.055 366.853,84.840 368.121 C 84.769 368.539,85.861 369.631,86.279 369.560 C 87.561 369.342,87.959 369.683,88.076 371.100 C 88.193 372.514,88.285 372.607,89.677 372.723 C 91.065 372.838,91.162 372.935,91.277 374.323 C 91.393 375.711,91.489 375.807,92.877 375.923 C 94.265 376.038,94.362 376.135,94.477 377.523 C 94.593 378.911,94.689 379.007,96.077 379.123 C 97.465 379.238,97.562 379.335,97.677 380.723 C 97.793 382.111,97.889 382.207,99.277 382.323 C 100.665 382.438,100.762 382.535,100.877 383.923 C 100.993 385.311,101.093 385.412,102.557 385.600 C 103.920 385.775,104.130 385.943,104.235 386.944 C 104.396 388.483,104.392 388.481,107.487 388.698 C 110.615 388.917,110.424 388.831,110.507 390.055 C 110.608 391.545,111.219 391.862,114.176 391.957 C 117.750 392.073,117.441 391.966,119.233 393.708 C 120.086 394.537,120.878 395.212,120.992 395.208 C 126.473 395.002,133.200 395.286,133.200 395.724 C 133.200 397.924,134.213 398.106,146.400 398.101 C 157.699 398.096,157.786 398.086,157.847 396.873 C 157.926 395.301,158.352 395.227,167.670 395.185 L 176.727 395.145 178.376 393.622 L 180.026 392.099 184.313 392.029 C 191.094 391.917,192.602 391.530,193.039 389.788 C 193.276 388.844,193.425 388.800,196.363 388.800 C 198.271 388.800,199.645 388.610,199.979 388.300 C 200.410 387.900,200.461 387.900,200.235 388.300 C 200.080 388.575,200.124 388.800,200.334 388.800 C 200.543 388.800,200.826 388.510,200.962 388.155 C 201.149 387.669,201.340 387.619,201.742 387.951 C 202.433 388.526,202.926 388.033,202.351 387.342 C 202.019 386.940,202.069 386.749,202.555 386.562 C 203.678 386.131,203.257 385.760,201.529 385.658 C 200.610 385.604,199.752 385.494,199.623 385.414 C 199.494 385.334,197.591 384.967,195.394 384.599 C 193.197 384.230,189.296 383.224,186.724 382.364 C 184.152 381.504,181.826 380.800,181.554 380.800 C 181.067 380.800,175.511 378.250,172.800 376.781 C 172.030 376.364,170.288 375.482,168.929 374.821 C 167.571 374.160,166.342 373.430,166.200 373.200 C 166.058 372.970,164.909 372.261,163.647 371.624 C 162.385 370.987,161.104 370.167,160.801 369.801 C 160.498 369.436,159.397 368.705,158.353 368.176 C 157.310 367.648,156.342 367.030,156.202 366.803 C 156.062 366.576,155.014 365.759,153.874 364.987 C 150.079 362.418,144.923 358.486,143.140 356.801 C 142.557 356.251,140.862 354.810,139.374 353.600 C 131.070 346.847,117.944 334.311,108.800 324.400 C 106.930 322.374,104.700 319.974,103.845 319.067 C 102.989 318.161,100.059 314.805,97.333 311.610 C 94.608 308.414,91.762 305.080,91.009 304.200 C 88.371 301.115,86.949 299.391,86.178 298.344 C 85.750 297.762,84.257 295.897,82.859 294.197 C 81.461 292.497,79.959 290.498,79.519 289.753 C 79.080 289.009,78.564 288.400,78.373 288.400 C 78.181 288.400,77.389 287.455,76.613 286.300 C 75.836 285.145,74.301 283.030,73.200 281.600 C 72.100 280.170,70.857 278.460,70.439 277.800 C 70.021 277.140,69.115 275.880,68.427 275.000 C 66.247 272.214,64.562 269.818,63.460 267.939 C 62.873 266.937,62.034 265.793,61.596 265.397 C 61.158 265.000,60.800 264.497,60.800 264.277 C 60.800 264.058,60.248 263.141,59.574 262.239 C 57.601 259.601,55.717 256.739,54.623 254.718 C 54.063 253.682,53.198 252.461,52.702 252.003 C 52.206 251.545,51.347 250.232,50.794 249.085 C 49.883 247.197,49.650 246.988,48.335 246.878 C 46.707 246.742,46.415 246.199,46.405 243.300 C 46.397 240.700,43.776 240.636,43.529 243.230 M310.256 243.277 C 309.606 243.986,309.579 244.213,310.044 245.081 C 310.336 245.628,310.643 245.870,310.726 245.621 C 310.837 245.289,311.035 245.297,311.461 245.650 C 311.959 246.064,312.030 245.863,311.947 244.267 C 311.843 242.252,311.423 242.006,310.256 243.277 M75.600 245.400 C 75.974 245.851,75.980 246.000,75.622 246.000 C 75.340 246.000,75.198 246.446,75.273 247.100 C 75.399 248.188,76.783 248.520,77.139 247.547 C 77.219 247.326,77.514 247.362,77.839 247.632 C 78.180 247.915,78.400 247.938,78.400 247.692 C 78.400 247.276,77.238 246.623,76.700 246.736 C 76.535 246.771,76.429 246.665,76.464 246.500 C 76.577 245.962,75.924 244.800,75.508 244.800 C 75.274 244.800,75.313 245.054,75.600 245.400 M79.100 251.476 C 78.581 251.611,78.400 252.071,78.400 253.255 C 78.400 255.180,80.581 255.506,81.251 253.680 C 81.492 253.023,81.458 252.841,81.132 253.042 C 80.825 253.232,80.744 253.058,80.886 252.513 C 81.059 251.854,80.946 251.741,80.287 251.914 C 79.738 252.057,79.568 251.976,79.761 251.663 C 79.918 251.408,79.992 251.221,79.924 251.246 C 79.856 251.272,79.485 251.375,79.100 251.476 M306.937 251.455 C 307.251 252.015,306.259 252.906,305.776 252.497 C 305.584 252.333,305.644 252.487,305.910 252.837 C 306.176 253.187,306.265 253.602,306.108 253.759 C 305.714 254.153,306.811 254.786,307.900 254.794 C 308.688 254.799,308.800 254.596,308.800 253.157 C 308.800 251.926,308.662 251.567,308.249 251.726 C 307.946 251.842,307.469 251.727,307.190 251.469 C 306.838 251.143,306.760 251.139,306.937 251.455 M305.001 258.801 C 305.240 259.188,305.111 259.270,304.513 259.114 C 303.854 258.941,303.741 259.054,303.914 259.713 C 304.076 260.333,303.993 260.445,303.563 260.186 C 303.091 259.901,303.085 259.951,303.527 260.496 C 304.378 261.547,305.600 261.218,305.600 259.938 C 305.600 259.338,305.392 258.719,305.138 258.562 C 304.832 258.373,304.786 258.454,305.001 258.801 M82.070 259.290 C 81.430 259.930,81.477 260.800,82.151 260.800 C 82.454 260.800,82.906 260.554,83.156 260.253 C 83.787 259.493,82.769 258.591,82.070 259.290 M84.812 262.300 L 84.800 264.000 86.500 263.988 C 87.883 263.978,88.065 263.897,87.478 263.556 C 86.897 263.218,86.851 263.021,87.241 262.551 C 87.932 261.718,87.082 260.868,86.249 261.559 C 85.779 261.949,85.582 261.903,85.244 261.322 C 84.903 260.735,84.822 260.917,84.812 262.300 M300.869 265.767 C 300.296 266.548,300.583 267.318,301.500 267.458 C 302.253 267.573,302.400 267.411,302.400 266.464 C 302.400 265.303,301.508 264.897,300.869 265.767 M47.200 268.289 C 47.200 268.792,48.343 269.790,48.612 269.521 C 48.718 269.415,48.444 269.002,48.002 268.602 C 47.561 268.203,47.200 268.062,47.200 268.289 M297.843 271.539 C 298.051 272.366,297.966 272.451,297.139 272.243 C 296.623 272.113,296.436 272.114,296.724 272.245 C 297.146 272.436,297.132 272.612,296.654 273.141 C 296.111 273.742,296.197 273.801,297.629 273.808 C 299.189 273.815,299.200 273.805,299.200 272.259 C 299.200 270.968,299.104 270.782,298.639 271.168 C 298.208 271.525,298.023 271.513,297.843 271.117 C 297.713 270.833,297.713 271.023,297.843 271.539 M94.400 275.186 L 94.400 276.800 96.014 276.800 C 97.487 276.800,97.592 276.732,97.213 276.024 C 96.940 275.514,96.934 275.164,97.195 275.003 C 97.446 274.848,97.410 274.557,97.096 274.212 C 96.812 273.900,96.445 273.816,96.239 274.015 C 96.034 274.212,95.558 274.192,95.139 273.967 C 94.477 273.613,94.400 273.740,94.400 275.186 M294.548 277.409 C 294.741 277.912,294.639 277.942,293.961 277.579 C 293.213 277.179,293.179 277.213,293.579 277.961 C 293.942 278.639,293.912 278.741,293.409 278.548 C 292.666 278.263,292.643 278.760,293.357 279.700 C 294.343 280.999,296.000 280.611,296.000 279.080 C 296.000 277.800,295.420 276.800,294.677 276.800 C 294.478 276.800,294.420 277.074,294.548 277.409 M292.126 284.551 C 292.242 284.854,292.150 285.290,291.920 285.520 C 291.690 285.750,291.254 285.842,290.951 285.726 C 290.648 285.610,290.400 285.714,290.400 285.957 C 290.400 286.201,290.940 286.400,291.600 286.400 C 292.667 286.400,292.800 286.267,292.800 285.200 C 292.800 284.540,292.601 284.000,292.357 284.000 C 292.114 284.000,292.010 284.248,292.126 284.551 M288.400 286.756 C 288.400 286.951,288.085 287.086,287.700 287.056 C 287.261 287.021,287.021 287.261,287.056 287.700 C 287.086 288.085,286.951 288.400,286.756 288.400 C 285.807 288.400,286.556 289.531,287.650 289.750 C 289.575 290.135,289.600 290.116,289.600 288.200 C 289.600 286.867,289.444 286.400,289.000 286.400 C 288.670 286.400,288.400 286.560,288.400 286.756 M244.828 367.900 C 244.850 369.062,244.928 369.220,245.174 368.600 C 245.452 367.900,245.511 367.886,245.646 368.485 C 245.779 369.079,245.926 369.039,246.742 368.185 C 247.596 367.292,247.614 367.197,246.942 367.172 C 246.259 367.146,246.264 367.116,247.000 366.800 C 247.642 366.524,247.503 366.451,246.300 366.428 C 244.824 366.400,244.800 366.424,244.828 367.900 M228.400 377.157 C 228.400 378.266,229.224 379.043,229.794 378.472 C 229.944 378.323,230.232 378.200,230.433 378.200 C 230.635 378.200,230.815 378.020,230.834 377.800 C 230.853 377.580,231.031 377.203,231.231 376.963 C 231.758 376.327,231.250 376.000,229.733 376.000 C 228.529 376.000,228.400 376.112,228.400 377.157 M117.600 393.089 C 117.600 393.592,118.743 394.590,119.012 394.321 C 119.118 394.215,118.844 393.802,118.402 393.402 C 117.961 393.003,117.600 392.862,117.600 393.089 M179.002 393.598 C 178.603 394.039,178.462 394.400,178.689 394.400 C 179.192 394.400,180.190 393.257,179.921 392.988 C 179.815 392.882,179.402 393.156,179.002 393.598 " stroke="none" fill="#d1d4db" fill-rule="evenodd"></path><path id="path1" d="M164.200 42.455 C 161.560 42.643,157.870 43.057,156.000 43.377 C 154.130 43.696,149.090 44.334,144.800 44.794 C 140.510 45.253,135.200 46.061,133.000 46.588 C 130.800 47.115,127.035 47.848,124.634 48.217 C 122.232 48.586,119.262 49.238,118.034 49.665 C 116.805 50.093,114.034 50.800,111.876 51.236 C 109.717 51.673,107.038 52.391,105.923 52.831 C 104.807 53.270,102.210 54.068,100.151 54.603 C 98.093 55.137,95.838 55.870,95.141 56.231 C 94.444 56.591,92.622 57.233,91.093 57.657 C 89.564 58.080,87.542 58.837,86.600 59.339 C 84.956 60.214,84.756 60.230,81.544 59.747 C 74.410 58.673,72.000 59.060,72.000 61.280 C 72.000 62.397,71.992 62.400,69.280 62.400 C 66.272 62.400,65.600 62.780,65.600 64.480 C 65.600 65.597,65.592 65.600,62.880 65.600 C 59.895 65.600,59.200 65.982,59.200 67.623 C 59.200 68.631,59.072 68.699,56.741 68.943 C 53.968 69.233,53.200 69.684,53.200 71.026 C 53.200 71.832,52.976 71.970,51.500 72.077 C 49.861 72.196,49.796 72.252,49.679 73.651 C 49.561 75.059,49.501 75.109,47.679 75.327 C 45.158 75.629,44.481 75.786,44.112 76.155 C 43.801 76.466,43.744 76.666,43.650 77.800 C 43.616 78.205,43.161 78.400,42.249 78.400 C 41.506 78.400,40.719 78.625,40.499 78.900 C 39.980 79.551,39.640 82.000,40.069 82.000 C 40.251 82.000,40.400 82.636,40.400 83.413 C 40.400 85.038,39.647 85.532,38.041 84.960 C 35.771 84.151,33.814 84.832,33.677 86.477 C 33.562 87.865,33.465 87.962,32.077 88.077 C 30.689 88.193,30.593 88.289,30.477 89.677 C 30.362 91.065,30.265 91.162,28.877 91.277 L 27.400 91.400 27.533 94.700 L 27.666 98.000 26.033 98.000 C 24.437 98.000,24.400 98.031,24.400 99.386 C 24.400 100.945,23.661 101.527,21.900 101.355 L 20.800 101.248 20.800 104.466 L 20.800 107.684 19.274 107.538 C 17.875 107.405,17.762 107.468,17.920 108.293 C 18.550 111.589,16.264 114.374,14.706 112.209 C 14.544 111.984,14.409 112.190,14.406 112.667 C 14.403 113.143,14.175 113.624,13.900 113.735 C 13.500 113.896,13.500 113.943,13.900 113.968 C 14.255 113.991,14.400 114.916,14.400 117.165 C 14.400 119.963,14.319 120.314,13.700 120.195 C 13.315 120.122,12.708 120.047,12.351 120.031 C 11.855 120.007,11.693 119.561,11.664 118.147 C 11.595 114.692,11.200 115.843,11.200 119.500 C 11.200 122.016,11.046 123.205,10.700 123.367 C 10.300 123.553,10.300 123.647,10.700 123.833 C 11.252 124.091,11.422 128.400,10.880 128.400 C 10.704 128.400,10.318 128.175,10.021 127.900 C 9.578 127.489,9.533 127.543,9.765 128.200 C 9.974 128.793,9.930 128.884,9.596 128.552 C 9.173 128.133,8.902 127.263,8.831 126.100 C 8.814 125.825,8.620 125.600,8.400 125.600 C 8.140 125.600,8.000 131.281,8.000 141.843 C 8.000 156.538,8.061 158.062,8.637 157.841 C 11.187 156.863,11.200 156.873,11.200 159.985 C 11.200 163.368,10.565 164.487,9.384 163.182 C 8.977 162.733,8.873 162.400,9.138 162.400 C 9.963 162.400,9.625 161.772,8.766 161.707 C 8.131 161.660,7.997 161.806,8.204 162.322 C 8.354 162.695,8.522 163.270,8.577 163.600 C 8.631 163.930,8.839 164.209,9.038 164.220 C 11.092 164.331,11.200 164.602,11.200 169.651 C 11.200 172.871,11.337 174.363,11.616 174.190 C 11.845 174.048,11.923 173.588,11.789 173.166 C 11.648 172.721,11.735 172.400,11.997 172.400 C 12.244 172.400,12.364 172.265,12.263 172.100 C 12.162 171.935,12.601 171.781,13.239 171.757 L 14.400 171.715 14.454 176.957 C 14.484 179.841,14.587 181.795,14.682 181.300 C 14.822 180.575,15.123 180.400,16.228 180.400 L 17.600 180.400 17.600 183.643 L 17.600 186.887 16.501 186.611 C 15.122 186.265,15.241 186.425,14.821 184.355 L 14.465 182.600 14.511 184.309 C 14.552 185.802,15.639 187.682,16.242 187.300 C 17.150 186.726,17.604 187.373,17.646 189.300 C 17.672 190.455,17.775 191.085,17.876 190.700 C 18.005 190.205,18.460 190.000,19.429 190.000 L 20.800 190.000 20.846 194.900 C 20.872 197.595,20.972 199.500,21.069 199.134 C 21.441 197.729,23.770 197.877,24.150 199.330 C 24.273 199.802,24.267 201.457,24.135 203.009 L 23.897 205.831 25.548 205.673 C 27.456 205.492,27.323 205.091,27.209 210.667 C 27.121 214.937,27.380 216.583,28.072 216.156 C 28.331 215.995,28.392 216.196,28.234 216.693 C 27.921 217.679,28.835 218.515,29.815 218.139 C 30.242 217.975,30.434 218.022,30.289 218.256 C 30.144 218.491,30.796 218.638,31.924 218.624 L 33.800 218.600 33.660 221.900 L 33.519 225.200 35.093 225.200 C 37.034 225.200,37.081 225.246,36.877 226.988 C 36.607 229.301,34.344 228.855,33.893 226.400 C 33.728 225.505,33.703 225.528,33.654 226.620 C 33.587 228.124,34.216 228.800,35.680 228.800 C 36.677 228.800,36.800 228.943,36.799 230.100 C 36.799 231.363,36.848 231.400,38.499 231.400 L 40.200 231.400 40.085 234.533 C 39.999 236.865,40.090 237.591,40.442 237.374 C 41.624 236.644,43.111 236.817,43.351 237.713 C 43.693 238.989,43.654 241.200,43.289 241.200 C 42.922 241.200,43.164 244.330,43.550 244.569 C 43.695 244.659,43.748 244.028,43.665 243.166 C 43.517 241.607,43.522 241.600,44.958 241.600 C 46.387 241.600,46.400 241.615,46.405 243.300 C 46.415 246.199,46.707 246.742,48.335 246.878 C 49.650 246.988,49.883 247.197,50.794 249.085 C 51.347 250.232,52.206 251.545,52.702 252.003 C 53.198 252.461,54.063 253.682,54.623 254.718 C 55.717 256.739,57.601 259.601,59.574 262.239 C 60.248 263.141,60.800 264.058,60.800 264.277 C 60.800 264.497,61.158 265.000,61.596 265.397 C 62.034 265.793,62.873 266.937,63.460 267.939 C 64.562 269.818,66.247 272.214,68.427 275.000 C 69.115 275.880,70.021 277.140,70.439 277.800 C 70.857 278.460,72.100 280.170,73.200 281.600 C 74.301 283.030,75.836 285.145,76.613 286.300 C 77.389 287.455,78.181 288.400,78.373 288.400 C 78.564 288.400,79.080 289.009,79.519 289.753 C 79.959 290.498,81.461 292.497,82.859 294.197 C 84.257 295.897,85.750 297.762,86.178 298.344 C 86.949 299.391,88.371 301.115,91.009 304.200 C 91.762 305.080,94.608 308.414,97.333 311.610 C 100.059 314.805,102.989 318.161,103.845 319.067 C 104.700 319.974,106.930 322.374,108.800 324.400 C 117.944 334.311,131.070 346.847,139.374 353.600 C 140.862 354.810,142.557 356.251,143.140 356.801 C 144.923 358.486,150.079 362.418,153.874 364.987 C 155.014 365.759,156.062 366.576,156.202 366.803 C 156.342 367.030,157.310 367.648,158.353 368.176 C 159.397 368.705,160.498 369.436,160.801 369.801 C 161.104 370.167,162.385 370.987,163.647 371.624 C 164.909 372.261,166.058 372.970,166.200 373.200 C 166.342 373.430,167.571 374.160,168.929 374.821 C 170.288 375.482,172.030 376.364,172.800 376.781 C 175.511 378.250,181.067 380.800,181.554 380.800 C 181.826 380.800,184.152 381.504,186.724 382.364 C 190.776 383.719,194.750 384.611,200.963 385.561 C 201.822 385.693,205.384 385.710,208.878 385.600 C 215.626 385.388,215.980 385.275,215.994 383.328 C 216.000 382.514,216.230 382.445,219.500 382.273 C 224.749 381.997,224.993 381.935,225.047 380.873 C 225.116 379.489,225.560 379.255,228.297 379.158 C 230.538 379.078,232.578 378.113,232.100 377.358 C 231.479 376.378,232.167 376.000,234.571 376.000 C 237.416 376.000,238.400 375.427,238.400 373.771 C 238.400 372.905,238.573 372.800,240.000 372.800 C 240.880 372.800,241.600 372.626,241.600 372.413 C 241.600 372.199,241.877 372.131,242.215 372.261 C 243.038 372.577,244.496 371.209,244.267 370.336 C 244.117 369.760,244.406 369.620,245.943 369.520 C 247.775 369.402,247.802 369.380,247.924 367.900 C 248.038 366.528,248.150 366.400,249.248 366.400 C 249.958 366.400,250.345 366.234,250.196 365.993 C 250.058 365.770,249.815 365.667,249.656 365.765 C 249.497 365.864,249.438 365.338,249.524 364.597 C 249.662 363.417,249.887 363.185,251.341 362.725 C 252.626 362.318,253.031 361.975,253.138 361.200 C 253.334 359.788,253.931 359.200,255.169 359.200 C 256.391 359.200,257.200 358.550,257.200 357.567 C 257.200 357.149,258.026 356.490,259.379 355.828 C 260.578 355.241,261.670 354.408,261.807 353.976 C 261.945 353.545,262.757 352.788,263.614 352.296 C 264.470 351.803,265.377 351.015,265.630 350.544 C 265.882 350.073,266.563 349.447,267.144 349.152 C 267.725 348.858,268.841 347.983,269.625 347.208 C 270.408 346.434,272.106 344.900,273.398 343.800 C 274.690 342.700,276.749 340.923,277.974 339.852 C 281.188 337.038,296.575 321.485,299.398 318.195 C 300.717 316.658,303.120 313.870,304.737 312.000 C 308.355 307.818,309.559 306.387,311.715 303.703 C 312.642 302.549,313.940 300.946,314.600 300.139 C 315.260 299.333,316.340 297.913,317.000 296.984 C 317.660 296.055,319.010 294.254,320.000 292.982 C 322.586 289.659,324.584 286.866,325.852 284.800 C 326.459 283.810,327.551 282.293,328.278 281.428 C 329.005 280.563,329.600 279.689,329.600 279.486 C 329.600 279.282,330.116 278.459,330.747 277.658 C 331.377 276.856,332.264 275.468,332.718 274.573 C 333.171 273.679,333.839 272.700,334.202 272.398 C 334.565 272.097,335.311 270.965,335.859 269.883 C 336.408 268.800,337.384 267.187,338.028 266.297 C 338.673 265.408,339.200 264.451,339.200 264.171 C 339.200 263.891,339.626 263.153,340.147 262.531 C 340.668 261.909,341.703 260.262,342.447 258.871 C 343.191 257.479,344.520 255.008,345.400 253.379 C 347.896 248.759,352.400 239.722,352.400 239.335 C 352.400 239.143,352.823 238.359,353.341 237.593 C 353.858 236.827,354.507 235.480,354.784 234.600 C 355.060 233.720,355.790 232.087,356.407 230.971 C 357.023 229.855,357.794 228.041,358.121 226.941 C 358.448 225.841,359.161 224.055,359.706 222.971 C 360.252 221.887,361.004 219.920,361.379 218.600 C 361.753 217.280,362.496 215.266,363.030 214.125 C 363.563 212.983,364.282 210.835,364.626 209.352 C 364.970 207.868,365.674 205.649,366.191 204.422 C 366.708 203.194,367.333 201.022,367.580 199.595 C 367.828 198.168,368.560 195.200,369.208 193.000 C 369.856 190.800,370.751 186.216,371.198 182.814 C 371.645 179.411,372.278 175.271,372.605 173.614 C 372.933 171.956,373.373 167.720,373.584 164.200 C 373.894 159.031,374.162 157.261,374.976 155.000 C 375.934 152.337,375.981 151.809,375.932 144.200 C 375.903 139.800,375.803 136.740,375.709 137.400 C 375.498 138.881,375.137 139.273,373.856 139.414 C 372.643 139.547,372.121 136.351,372.678 132.200 C 373.272 127.776,373.009 126.800,371.226 126.800 C 369.837 126.800,369.678 126.688,369.450 125.550 C 369.079 123.693,369.147 120.880,369.571 120.618 C 369.786 120.485,369.802 119.903,369.607 119.225 C 369.423 118.584,369.392 117.928,369.537 117.766 C 369.681 117.604,369.605 117.583,369.366 117.718 C 366.718 119.225,365.708 118.072,366.161 114.060 L 366.421 111.765 364.945 111.666 C 362.743 111.517,362.679 111.400,362.973 108.035 L 363.240 104.975 361.638 105.128 C 359.945 105.289,359.908 105.246,359.511 102.600 C 359.425 102.025,358.999 101.744,357.995 101.600 C 356.711 101.416,356.584 101.273,356.400 99.800 C 356.216 98.332,356.086 98.184,354.819 98.000 C 353.614 97.826,353.443 97.660,353.479 96.700 C 353.545 94.919,353.568 94.863,354.300 94.688 C 354.869 94.552,354.850 94.518,354.200 94.505 C 353.760 94.496,352.725 94.469,351.900 94.444 L 350.400 94.400 350.400 91.200 L 350.400 88.000 348.800 88.000 L 347.200 88.000 347.200 86.400 C 347.200 84.804,347.196 84.800,345.624 84.800 C 344.092 84.800,344.045 84.758,343.924 83.300 C 343.807 81.886,343.715 81.793,342.323 81.677 C 340.935 81.562,340.838 81.465,340.723 80.077 C 340.602 78.624,340.570 78.598,338.743 78.480 C 337.206 78.380,336.917 78.240,337.067 77.664 C 337.296 76.791,335.838 75.423,335.015 75.739 C 334.677 75.869,334.400 75.801,334.400 75.587 C 334.400 75.374,333.680 75.200,332.800 75.200 C 331.314 75.200,331.200 75.120,331.200 74.080 C 331.200 72.383,330.527 72.000,327.544 72.000 L 324.848 72.000 324.724 70.500 L 324.600 69.000 321.523 68.884 L 318.446 68.767 318.323 67.284 L 318.200 65.800 315.123 65.684 L 312.046 65.567 311.923 64.084 L 311.800 62.600 308.700 62.483 C 305.611 62.367,305.600 62.362,305.600 61.263 C 305.600 59.585,304.920 59.200,301.952 59.200 C 299.278 59.200,299.262 59.193,298.995 57.976 C 298.640 56.359,297.582 56.000,293.174 56.000 L 289.600 56.000 289.600 54.880 C 289.600 53.029,289.018 52.800,284.320 52.800 L 280.000 52.800 280.000 51.649 C 280.000 49.903,279.327 49.638,274.579 49.514 L 270.206 49.400 270.002 48.218 C 269.643 46.134,260.192 45.615,257.859 47.551 C 256.554 48.634,247.634 48.068,242.800 46.594 C 240.738 45.965,236.987 45.420,230.400 44.793 C 227.870 44.552,223.640 44.013,221.000 43.596 C 211.344 42.070,178.809 41.417,164.200 42.455 M268.227 49.506 C 267.864 49.869,266.749 49.206,267.010 48.783 C 267.189 48.493,267.451 48.510,267.845 48.838 C 268.161 49.100,268.333 49.401,268.227 49.506 M278.320 50.577 C 278.662 50.627,279.006 51.147,279.085 51.734 C 279.296 53.314,276.204 53.379,275.902 51.800 C 275.797 51.250,275.877 50.800,276.079 50.800 C 276.282 50.800,276.324 50.601,276.174 50.357 C 275.987 50.056,276.187 50.005,276.799 50.200 C 277.294 50.357,277.979 50.526,278.320 50.577 M287.912 53.924 C 287.838 54.368,288.032 54.562,288.476 54.488 C 288.940 54.411,289.133 54.630,289.091 55.188 C 289.002 56.365,286.191 56.375,285.884 55.200 C 285.769 54.760,285.838 54.400,286.037 54.400 C 286.237 54.400,286.400 54.168,286.400 53.885 C 286.400 53.602,286.765 53.343,287.212 53.309 C 287.770 53.267,287.989 53.460,287.912 53.924 M297.200 57.247 C 297.200 57.467,297.020 57.536,296.800 57.400 C 296.100 56.967,296.369 57.449,297.269 58.238 C 297.747 58.657,297.992 58.752,297.813 58.448 C 297.602 58.089,297.658 57.953,297.974 58.058 C 299.067 58.422,298.494 59.008,296.932 59.121 C 295.298 59.240,295.146 59.082,295.569 57.700 C 295.586 57.645,295.585 57.485,295.566 57.345 C 295.514 56.957,296.518 56.426,296.881 56.650 C 297.056 56.758,297.200 57.027,297.200 57.247 M304.267 60.200 C 304.230 60.420,304.380 60.570,304.600 60.533 C 304.820 60.497,305.000 60.902,305.000 61.433 C 305.000 62.436,302.073 62.980,301.950 62.000 C 301.923 61.780,301.866 61.375,301.825 61.100 C 301.704 60.285,302.266 59.800,303.333 59.800 C 303.883 59.800,304.303 59.980,304.267 60.200 M75.515 61.481 C 75.575 62.208,75.389 62.400,74.619 62.400 C 73.523 62.400,73.022 61.841,73.351 60.984 C 73.719 60.025,75.427 60.417,75.515 61.481 M68.894 63.747 C 69.628 64.879,69.213 65.600,67.827 65.600 C 66.573 65.600,66.456 65.500,66.486 64.450 C 66.521 63.231,68.234 62.731,68.894 63.747 M310.274 64.070 C 311.532 65.251,311.439 65.600,309.869 65.600 C 308.618 65.600,308.549 65.528,308.715 64.400 C 308.925 62.968,309.069 62.938,310.274 64.070 M62.700 67.478 C 62.795 68.737,62.734 68.800,61.423 68.800 C 59.965 68.800,59.159 68.120,60.000 67.600 C 60.276 67.429,60.380 67.091,60.230 66.849 C 60.059 66.573,60.189 66.498,60.579 66.647 C 60.921 66.778,61.200 66.698,61.200 66.468 C 61.200 65.305,62.607 66.253,62.700 67.478 M323.004 69.607 C 323.142 69.830,323.451 69.892,323.689 69.745 C 323.939 69.591,324.009 69.661,323.855 69.911 C 323.708 70.149,323.770 70.458,323.993 70.596 C 325.017 71.228,324.361 72.000,322.800 72.000 C 321.310 72.000,321.200 71.922,321.200 70.867 C 321.200 69.299,322.327 68.512,323.004 69.607 M52.711 73.958 C 52.745 75.138,50.783 75.743,50.165 74.743 C 50.051 74.560,50.220 74.509,50.539 74.632 C 50.926 74.780,51.100 74.611,51.060 74.127 C 51.021 73.650,51.250 73.421,51.727 73.460 C 52.211 73.500,52.380 73.326,52.232 72.939 C 52.109 72.620,52.160 72.451,52.343 72.565 C 52.527 72.679,52.693 73.305,52.711 73.958 M329.833 72.914 C 330.072 72.925,330.275 73.128,330.286 73.367 C 330.296 73.605,330.435 74.115,330.595 74.500 C 330.844 75.100,330.651 75.200,329.243 75.200 C 327.706 75.200,327.600 75.127,327.600 74.067 C 327.600 72.705,327.945 72.286,328.779 72.635 C 329.121 72.778,329.595 72.904,329.833 72.914 M195.157 75.051 C 196.523 75.325,196.723 76.447,195.637 77.756 C 195.149 78.344,195.671 78.400,201.600 78.400 C 206.726 78.400,208.021 78.294,207.734 77.900 C 206.811 76.633,207.111 75.283,208.376 75.005 C 211.388 74.344,212.987 75.813,211.200 77.600 L 210.400 78.400 220.334 78.400 L 230.269 78.400 231.705 80.000 L 233.141 81.600 240.571 81.600 L 248.000 81.600 248.000 82.571 C 248.000 84.561,252.344 85.817,253.979 84.300 C 254.410 83.900,254.461 83.900,254.235 84.300 C 254.019 84.683,254.754 84.800,257.376 84.800 L 260.800 84.800 260.800 85.920 C 260.800 87.771,261.382 88.000,266.080 88.000 L 270.400 88.000 270.400 89.120 C 270.400 90.969,270.984 91.200,275.656 91.200 L 279.952 91.200 280.076 92.700 L 280.200 94.200 283.272 94.316 C 286.330 94.432,286.345 94.438,286.609 95.640 C 286.930 97.101,288.037 97.600,290.961 97.600 C 292.874 97.600,293.226 97.748,294.752 99.200 C 296.049 100.434,296.750 100.800,297.817 100.800 C 299.065 100.800,299.200 100.909,299.200 101.920 C 299.200 103.335,299.858 104.000,301.256 104.000 C 302.453 104.000,302.891 104.453,302.957 105.754 C 302.988 106.356,303.280 106.614,303.968 106.649 C 304.500 106.675,305.150 106.990,305.412 107.349 C 305.886 107.996,306.627 108.290,306.250 107.681 C 305.795 106.945,306.654 106.430,307.816 106.741 C 308.708 106.979,309.050 107.346,309.203 108.229 C 309.373 109.208,309.635 109.433,310.798 109.600 C 311.799 109.744,312.225 110.025,312.311 110.600 C 312.664 112.949,312.798 113.149,314.101 113.275 L 315.400 113.400 315.264 116.414 L 315.127 119.428 316.717 119.276 C 318.723 119.085,318.942 119.454,318.594 122.451 L 318.315 124.859 317.408 124.008 C 316.592 123.241,316.477 123.223,316.244 123.829 C 315.892 124.748,316.740 125.673,317.667 125.379 C 318.155 125.224,318.381 125.317,318.310 125.644 C 318.233 125.999,318.690 126.119,319.846 126.048 C 321.978 125.917,322.053 126.204,321.770 133.400 C 321.616 137.307,321.673 138.807,321.960 138.361 C 322.186 138.010,322.899 137.708,323.544 137.689 C 325.013 137.647,325.036 137.772,324.878 144.953 L 324.755 150.507 323.585 149.386 C 322.679 148.517,322.516 148.142,322.864 147.723 C 323.217 147.297,323.173 147.235,322.657 147.434 C 322.291 147.574,322.000 147.489,322.000 147.243 C 322.000 146.999,322.225 146.797,322.500 146.794 C 322.862 146.789,322.848 146.691,322.449 146.439 C 322.146 146.247,321.988 145.934,322.098 145.745 C 322.208 145.555,322.164 144.590,321.999 143.600 C 321.717 141.902,321.698 141.959,321.656 144.600 C 321.605 147.802,321.903 149.307,322.513 148.930 C 322.783 148.764,322.836 148.929,322.661 149.385 C 322.375 150.130,322.994 151.200,323.711 151.200 C 323.938 151.200,323.781 150.807,323.362 150.327 L 322.600 149.455 323.675 150.227 L 324.751 151.000 324.783 167.719 L 324.816 184.438 323.620 185.445 C 321.858 186.927,321.605 188.509,321.602 198.050 L 321.600 206.700 320.451 206.930 C 318.806 207.259,318.676 207.826,318.489 215.500 L 318.321 222.400 317.240 222.400 C 315.435 222.400,315.200 223.004,315.200 227.647 C 315.200 230.685,315.054 232.001,314.700 232.167 C 314.300 232.353,314.300 232.447,314.700 232.633 C 314.977 232.763,315.200 233.577,315.200 234.460 C 315.200 236.146,314.093 236.392,312.956 234.960 C 312.405 234.265,311.944 234.235,312.030 234.900 C 312.622 239.463,311.837 242.072,309.838 242.180 C 309.328 242.208,309.139 243.279,308.919 247.400 C 308.695 251.570,308.862 251.111,307.508 251.292 C 305.755 251.527,305.726 251.587,305.650 255.153 C 305.599 257.541,305.341 257.885,303.400 258.146 C 303.180 258.176,302.984 258.380,302.965 258.600 C 302.946 258.820,302.816 259.270,302.676 259.600 C 302.536 259.930,302.372 261.190,302.311 262.400 C 302.220 264.212,302.077 264.590,301.500 264.544 C 301.115 264.514,300.800 264.660,300.800 264.868 C 300.800 265.077,300.592 265.119,300.338 264.962 C 300.052 264.785,299.985 264.852,300.162 265.138 C 300.319 265.392,300.262 265.600,300.036 265.600 C 299.810 265.600,299.722 265.852,299.840 266.160 C 299.958 266.467,299.862 266.838,299.627 266.983 C 299.380 267.136,299.200 268.640,299.200 270.553 L 299.200 273.859 297.700 273.830 C 296.249 273.801,296.196 273.849,296.076 275.300 C 296.008 276.125,295.747 276.800,295.496 276.800 C 295.168 276.800,295.175 276.935,295.520 277.280 C 295.784 277.544,296.000 278.354,296.000 279.080 C 296.000 280.611,294.343 280.999,293.357 279.700 C 292.893 279.089,292.824 279.264,292.813 281.076 L 292.800 283.152 291.300 283.276 L 289.800 283.400 289.683 286.732 L 289.567 290.065 287.983 289.797 L 286.400 289.530 286.400 291.141 C 286.400 292.714,286.364 292.755,284.900 292.876 C 283.486 292.993,283.393 293.085,283.277 294.477 C 283.162 295.865,283.065 295.962,281.677 296.077 C 280.289 296.193,280.193 296.289,280.077 297.677 C 279.962 299.065,279.865 299.162,278.477 299.277 C 277.089 299.393,276.993 299.489,276.877 300.877 C 276.762 302.265,276.665 302.362,275.277 302.477 C 273.885 302.593,273.793 302.686,273.676 304.100 C 273.561 305.493,273.461 305.600,272.276 305.602 C 269.679 305.607,267.990 306.351,267.740 307.602 C 267.535 308.627,267.320 308.772,265.854 308.879 C 264.260 308.996,264.196 309.054,264.077 310.484 L 263.954 311.967 260.877 312.084 L 257.800 312.200 257.676 313.700 L 257.552 315.200 253.256 315.200 C 248.584 315.200,248.000 315.431,248.000 317.280 L 248.000 318.400 241.500 318.447 C 233.344 318.507,232.671 318.637,232.399 320.203 L 232.192 321.400 209.496 321.503 L 186.800 321.607 186.800 320.652 C 186.800 318.810,186.008 318.610,178.139 318.462 C 170.805 318.324,170.800 318.323,170.800 317.411 C 170.800 315.717,169.867 315.424,163.947 315.262 L 158.400 315.109 158.400 314.035 C 158.400 312.235,157.793 312.000,153.144 312.000 L 148.848 312.000 148.724 310.500 L 148.600 309.000 145.500 308.883 C 142.411 308.767,142.400 308.762,142.400 307.663 C 142.400 305.980,141.722 305.600,138.720 305.600 C 136.107 305.600,136.000 305.562,136.000 304.629 C 136.000 302.973,135.016 302.400,132.171 302.400 C 129.622 302.400,129.600 302.391,129.600 301.280 C 129.600 299.583,128.927 299.200,125.944 299.200 L 123.248 299.200 123.124 297.700 C 123.007 296.281,122.919 296.193,121.500 296.076 C 120.224 295.970,120.000 295.810,120.000 295.004 C 120.000 293.377,119.004 292.800,116.196 292.800 L 113.648 292.800 113.524 291.300 C 113.407 289.886,113.315 289.793,111.923 289.677 C 110.535 289.562,110.438 289.465,110.323 288.077 C 110.207 286.689,110.111 286.593,108.723 286.477 C 107.335 286.362,107.238 286.265,107.123 284.877 C 107.007 283.485,106.914 283.393,105.500 283.276 C 104.162 283.165,104.000 283.033,104.000 282.056 C 104.000 280.658,103.335 280.000,101.920 280.000 C 100.960 280.000,100.800 279.840,100.800 278.880 C 100.800 277.182,100.128 276.800,97.137 276.800 L 94.434 276.800 94.317 273.700 L 94.200 270.600 92.723 270.477 C 91.335 270.362,91.238 270.265,91.123 268.877 C 91.007 267.485,90.914 267.393,89.500 267.276 C 88.042 267.155,88.000 267.108,88.000 265.576 C 88.000 264.007,87.993 264.000,86.417 264.000 L 84.834 264.000 84.717 260.900 L 84.600 257.800 83.100 257.676 L 81.600 257.552 81.600 255.376 C 81.600 254.179,81.645 253.129,81.700 253.042 C 81.840 252.821,80.361 251.225,80.052 251.263 C 78.702 251.432,78.400 251.132,78.400 249.624 C 78.400 248.757,78.201 247.924,77.957 247.774 C 77.646 247.581,77.667 247.405,78.032 247.180 C 78.431 246.934,78.442 246.732,78.078 246.294 C 77.819 245.982,77.695 245.608,77.803 245.463 C 77.912 245.318,77.882 245.288,77.737 245.397 C 77.592 245.505,77.218 245.381,76.906 245.122 C 76.468 244.758,76.266 244.769,76.020 245.168 C 75.507 245.997,75.253 245.142,75.160 242.273 C 75.070 239.476,74.670 238.751,73.085 238.510 C 71.976 238.340,72.058 238.588,71.965 235.090 C 71.920 233.391,71.735 232.000,71.554 232.000 C 71.373 232.000,71.331 231.723,71.461 231.385 C 71.782 230.550,70.408 229.105,69.516 229.338 C 68.864 229.508,68.800 229.174,68.800 225.589 C 68.800 220.829,68.463 219.765,66.843 219.409 L 65.638 219.145 65.455 212.672 C 65.228 204.611,65.021 203.800,63.200 203.800 C 62.675 203.800,62.588 200.948,62.507 180.900 L 62.414 158.000 63.778 158.000 C 64.740 158.000,65.195 158.206,65.324 158.700 C 65.425 159.085,65.528 157.401,65.554 154.957 L 65.600 150.514 66.863 150.565 C 67.720 150.600,68.224 150.870,68.434 151.408 C 68.659 151.984,68.751 151.737,68.772 150.500 C 68.794 149.177,68.955 148.790,69.500 148.754 C 70.167 148.709,70.167 148.698,69.500 148.524 C 68.943 148.379,68.800 147.903,68.800 146.194 C 68.800 143.895,68.858 143.857,71.232 144.610 C 71.873 144.813,72.000 144.655,72.000 143.656 C 72.000 142.852,72.230 142.399,72.700 142.276 C 73.214 142.141,73.155 142.080,72.477 142.046 C 71.644 142.005,71.566 141.834,71.677 140.300 L 71.800 138.600 73.500 138.676 L 75.200 138.751 75.200 135.776 L 75.200 132.800 76.700 132.801 C 78.198 132.801,78.200 132.799,78.200 131.101 C 78.200 129.429,78.225 129.398,79.677 129.277 C 81.065 129.162,81.162 129.065,81.277 127.677 C 81.434 125.797,84.163 125.127,84.534 126.878 C 84.642 127.385,84.655 126.900,84.563 125.800 C 84.352 123.275,84.587 122.970,86.800 122.904 C 87.790 122.874,88.903 122.827,89.273 122.798 C 90.000 122.742,90.866 121.897,90.767 121.342 C 90.617 120.506,90.852 120.037,91.531 119.822 C 91.968 119.683,92.250 119.229,92.231 118.695 C 92.209 118.056,92.429 117.800,93.000 117.800 C 94.151 117.800,94.442 117.210,94.161 115.451 C 93.865 113.601,94.398 113.103,96.300 113.451 C 97.593 113.688,97.600 113.680,97.600 112.061 L 97.600 110.434 100.700 110.317 L 103.800 110.200 103.923 108.722 C 104.040 107.311,104.118 107.238,105.630 107.122 C 106.501 107.055,107.177 106.910,107.131 106.800 C 106.813 106.033,109.564 104.177,111.174 104.071 C 113.465 103.922,113.600 103.817,113.600 102.176 L 113.600 100.800 115.574 100.800 C 118.360 100.800,119.474 100.283,119.790 98.846 C 120.023 97.786,120.242 97.629,121.634 97.522 C 122.503 97.455,123.217 97.271,123.220 97.113 C 123.238 96.173,125.528 94.583,127.000 94.489 C 130.661 94.256,132.400 93.434,132.400 91.938 C 132.400 91.292,132.744 91.200,135.171 91.200 C 138.201 91.200,139.200 90.661,139.200 89.025 C 139.200 88.142,139.352 88.100,143.185 87.915 C 147.451 87.710,148.400 87.316,148.400 85.751 C 148.400 84.808,148.435 84.800,152.771 84.800 C 157.509 84.800,158.400 84.453,158.400 82.610 L 158.400 81.678 165.539 81.539 C 173.192 81.390,174.000 81.181,174.000 79.351 L 174.000 78.400 182.500 78.340 C 187.175 78.307,191.540 78.294,192.200 78.313 C 193.007 78.335,193.138 78.274,192.600 78.127 C 191.622 77.859,191.214 77.275,191.206 76.129 C 191.198 74.967,192.695 74.559,195.157 75.051 M46.400 77.400 C 46.400 78.200,46.200 78.400,45.400 78.400 C 44.778 78.400,44.400 78.173,44.400 77.800 C 44.400 77.470,44.625 77.245,44.900 77.300 C 45.175 77.355,45.355 77.175,45.300 76.900 C 45.245 76.625,45.470 76.400,45.800 76.400 C 46.173 76.400,46.400 76.778,46.400 77.400 M335.831 77.733 C 335.894 78.157,335.651 78.400,335.165 78.400 C 334.678 78.400,334.400 78.122,334.400 77.635 C 334.400 76.684,335.690 76.772,335.831 77.733 M238.878 79.786 C 238.723 81.110,238.136 81.458,237.506 80.600 C 237.311 80.334,237.210 80.336,237.206 80.604 C 237.192 81.517,234.692 81.119,233.779 80.058 C 232.529 78.604,232.819 78.400,236.143 78.400 L 239.039 78.400 238.878 79.786 M339.000 79.638 C 339.000 79.947,339.253 80.200,339.562 80.200 C 339.871 80.200,340.170 80.515,340.226 80.900 C 340.308 81.458,340.032 81.600,338.865 81.600 C 337.528 81.600,336.908 80.324,337.569 78.935 C 337.734 78.590,339.000 79.212,339.000 79.638 M37.067 81.867 C 36.920 82.013,36.811 82.598,36.825 83.167 C 36.850 84.190,36.854 84.192,37.216 83.291 C 37.417 82.790,37.990 82.217,38.491 82.016 C 39.392 81.654,39.390 81.650,38.367 81.625 C 37.798 81.611,37.213 81.720,37.067 81.867 M156.417 82.845 C 155.242 84.020,154.321 84.459,155.165 83.442 C 155.531 83.002,155.488 82.896,154.961 82.942 C 154.594 82.974,154.248 82.716,154.192 82.368 C 154.113 81.877,154.477 81.731,155.831 81.713 L 157.572 81.690 156.417 82.845 M254.498 82.600 C 254.691 83.610,254.267 83.955,253.787 83.178 C 253.615 82.900,253.182 82.982,252.514 83.420 C 251.957 83.785,251.617 83.897,251.757 83.669 C 251.898 83.442,251.830 83.142,251.607 83.004 C 251.383 82.866,251.200 82.913,251.200 83.110 C 251.200 83.306,250.947 83.467,250.638 83.467 C 250.302 83.467,250.169 83.225,250.308 82.864 C 250.468 82.446,250.354 82.332,249.936 82.492 C 249.575 82.631,249.333 82.498,249.333 82.162 C 249.333 80.994,254.271 81.413,254.498 82.600 M346.220 85.770 C 347.234 86.663,346.695 88.000,345.320 88.000 C 344.088 88.000,344.000 87.910,344.000 86.652 C 344.000 85.265,345.135 84.814,346.220 85.770 M274.400 88.800 C 274.400 89.240,274.175 89.603,273.900 89.606 C 273.567 89.610,273.600 89.742,274.000 90.000 C 274.330 90.213,274.510 90.406,274.400 90.427 C 273.054 90.693,272.400 90.584,272.400 90.096 C 272.400 89.782,272.052 89.434,271.628 89.323 C 270.265 88.967,271.153 88.000,272.843 88.000 C 274.133 88.000,274.400 88.137,274.400 88.800 M283.875 92.300 C 283.708 94.742,280.400 94.484,280.400 92.029 C 280.400 91.315,280.646 91.200,282.175 91.200 C 283.864 91.200,283.947 91.254,283.875 92.300 M351.757 91.788 C 351.805 92.112,351.998 92.517,352.186 92.688 C 352.374 92.860,352.399 92.775,352.241 92.500 C 352.082 92.225,352.124 92.000,352.334 92.000 C 352.849 92.000,353.266 93.169,352.939 93.698 C 352.784 93.949,352.866 94.006,353.138 93.838 C 354.083 93.254,353.691 91.200,352.635 91.200 C 352.014 91.200,351.702 91.409,351.757 91.788 M30.400 93.000 C 30.400 94.333,30.333 94.400,29.000 94.400 C 27.349 94.400,27.239 93.924,28.582 92.582 C 29.924 91.239,30.400 91.349,30.400 93.000 M291.230 95.000 C 291.251 95.220,291.455 95.625,291.683 95.900 C 291.936 96.204,291.946 96.400,291.710 96.400 C 291.497 96.400,291.110 95.995,290.851 95.500 L 290.379 94.600 290.558 95.523 C 290.700 96.256,290.627 96.355,290.204 96.003 C 289.571 95.478,289.006 96.117,289.411 96.900 C 289.553 97.175,289.339 97.000,288.935 96.512 C 288.531 96.023,287.869 95.384,287.465 95.091 C 286.820 94.624,287.004 94.561,288.960 94.579 C 290.188 94.591,291.209 94.780,291.230 95.000 M355.675 94.825 C 355.771 95.114,356.086 95.429,356.375 95.525 C 356.675 95.625,356.825 95.475,356.725 95.175 C 356.629 94.886,356.314 94.571,356.025 94.475 C 355.725 94.375,355.575 94.525,355.675 94.825 M124.602 95.998 C 124.203 96.439,124.062 96.800,124.289 96.800 C 124.792 96.800,125.790 95.657,125.521 95.388 C 125.415 95.282,125.002 95.556,124.602 95.998 M118.400 97.909 C 118.400 98.179,117.263 99.200,116.962 99.200 C 116.800 99.200,116.785 99.082,116.930 98.937 C 117.075 98.792,117.022 98.468,116.814 98.217 C 116.547 97.895,116.726 97.760,117.417 97.760 C 117.958 97.760,118.400 97.827,118.400 97.909 M302.726 102.128 C 302.902 104.273,300.214 104.152,299.799 101.997 C 299.553 100.717,299.817 100.460,301.302 100.535 C 302.504 100.595,302.609 100.713,302.726 102.128 M112.843 101.877 C 112.354 103.703,110.400 103.934,110.400 102.165 C 110.400 100.878,110.478 100.800,111.765 100.800 C 113.053 100.800,113.114 100.862,112.843 101.877 M17.606 104.900 C 17.611 105.628,17.686 105.685,18.000 105.200 C 18.501 104.424,18.501 104.000,18.000 104.000 C 17.780 104.000,17.603 104.405,17.606 104.900 M305.819 105.133 C 305.801 106.462,305.021 106.621,303.919 105.519 C 302.989 104.589,303.308 104.000,304.740 104.000 C 305.678 104.000,305.832 104.162,305.819 105.133 M108.602 105.598 C 108.203 106.039,108.062 106.400,108.289 106.400 C 108.792 106.400,109.790 105.257,109.521 104.988 C 109.415 104.882,109.002 105.156,108.602 105.598 M100.000 111.229 C 100.000 111.782,98.982 112.800,98.429 112.800 C 98.193 112.800,98.000 112.980,98.000 113.200 C 98.000 113.760,99.740 113.700,100.320 113.120 C 100.900 112.540,100.960 110.800,100.400 110.800 C 100.180 110.800,100.000 110.993,100.000 111.229 M11.829 114.229 C 11.115 114.942,11.006 115.600,11.600 115.600 C 11.820 115.600,12.000 115.330,12.000 115.000 C 12.000 114.670,12.270 114.400,12.600 114.400 C 12.930 114.400,13.200 114.220,13.200 114.000 C 13.200 113.406,12.542 113.515,11.829 114.229 M96.800 115.037 C 96.800 115.388,96.440 115.769,96.000 115.884 C 95.560 115.999,95.200 116.252,95.200 116.447 C 95.200 116.930,95.895 116.893,96.204 116.393 C 96.342 116.170,96.651 116.108,96.889 116.255 C 97.139 116.409,97.209 116.339,97.055 116.089 C 96.908 115.851,96.970 115.542,97.193 115.404 C 97.716 115.081,97.721 114.400,97.200 114.400 C 96.980 114.400,96.800 114.687,96.800 115.037 M92.630 117.158 C 92.206 117.324,91.724 117.806,91.558 118.230 C 91.306 118.874,91.252 118.819,91.228 117.900 C 91.204 116.953,91.353 116.804,92.300 116.828 C 93.219 116.852,93.274 116.906,92.630 117.158 M92.578 118.435 C 92.166 119.102,93.093 119.867,93.645 119.315 C 94.107 118.853,93.818 118.000,93.200 118.000 C 93.006 118.000,92.726 118.196,92.578 118.435 M89.474 120.463 C 89.117 120.662,88.662 121.117,88.463 121.474 C 88.170 121.996,88.100 121.926,88.100 121.111 C 88.100 120.296,88.296 120.100,89.111 120.100 C 89.926 120.100,89.996 120.170,89.474 120.463 M315.206 121.833 C 315.209 122.255,315.395 122.870,315.618 123.200 C 315.915 123.638,315.952 123.476,315.756 122.600 C 315.427 121.129,315.198 120.810,315.206 121.833 M8.629 123.829 C 7.735 124.722,7.851 125.277,8.900 125.128 C 9.478 125.046,9.846 124.678,9.928 124.100 C 10.077 123.051,9.522 122.935,8.629 123.829 M86.489 125.027 C 85.767 125.782,85.338 126.400,85.534 126.400 C 85.992 126.400,88.000 124.401,88.000 123.945 C 88.000 123.461,87.955 123.493,86.489 125.027 M373.733 130.145 C 373.733 130.493,374.022 130.615,374.530 130.482 C 375.169 130.315,375.285 130.431,375.118 131.070 C 374.985 131.578,375.107 131.867,375.455 131.867 C 376.189 131.867,376.145 131.002,375.371 130.229 C 374.598 129.455,373.733 129.411,373.733 130.145 M81.167 131.184 C 81.060 131.816,80.643 132.266,80.000 132.444 L 79.000 132.720 80.113 132.760 C 81.286 132.802,81.782 132.146,81.501 130.923 C 81.372 130.361,81.298 130.419,81.167 131.184 M318.446 130.867 C 318.381 131.812,318.813 132.800,319.292 132.800 C 319.567 132.800,319.567 132.638,319.292 132.300 C 319.069 132.025,318.798 131.440,318.689 131.000 C 318.544 130.410,318.481 130.375,318.446 130.867 M77.953 133.900 C 77.927 134.065,77.933 134.354,77.967 134.542 C 78.000 134.730,77.820 135.135,77.565 135.442 C 77.201 135.880,77.241 136.000,77.751 136.000 C 78.205 136.000,78.400 135.640,78.400 134.800 C 78.400 133.742,78.079 133.097,77.953 133.900 M74.227 141.570 C 73.565 142.301,73.565 142.334,74.232 142.236 C 74.618 142.180,74.978 141.833,75.031 141.467 C 75.156 140.620,75.078 140.630,74.227 141.570 M8.000 159.533 C 8.000 160.230,8.183 160.800,8.408 160.800 C 8.650 160.800,8.708 160.353,8.551 159.700 C 8.175 158.130,8.000 158.077,8.000 159.533 M65.293 160.800 C 65.293 161.570,65.375 161.885,65.476 161.500 C 65.576 161.115,65.576 160.485,65.476 160.100 C 65.375 159.715,65.293 160.030,65.293 160.800 M64.400 206.563 C 64.400 206.632,63.950 206.603,63.400 206.498 C 62.673 206.359,62.400 206.051,62.400 205.372 L 62.400 204.436 63.400 205.436 C 63.950 205.986,64.400 206.493,64.400 206.563 M30.400 215.262 L 30.400 217.750 29.204 216.604 C 28.546 215.974,28.080 215.387,28.168 215.299 C 28.255 215.211,28.186 214.649,28.014 214.048 C 27.720 213.023,27.783 212.951,29.050 212.866 L 30.400 212.775 30.400 215.262 M318.400 224.353 C 318.400 225.692,318.262 225.933,317.403 226.097 C 315.457 226.469,315.280 223.694,317.215 223.154 C 317.757 223.003,318.245 222.862,318.300 222.840 C 318.355 222.818,318.400 223.499,318.400 224.353 M312.769 232.567 C 312.347 233.026,312.610 234.018,313.127 233.919 C 313.980 233.754,314.235 232.533,313.416 232.533 C 313.077 232.533,312.786 232.548,312.769 232.567 M74.284 240.530 C 74.363 241.118,74.286 241.623,74.114 241.651 C 72.129 241.974,72.000 241.906,72.000 240.532 C 72.000 238.719,74.041 238.718,74.284 240.530 M311.947 244.267 C 312.030 245.863,311.959 246.064,311.461 245.650 C 311.035 245.297,310.837 245.289,310.726 245.621 C 310.643 245.870,310.336 245.628,310.044 245.081 C 309.579 244.213,309.606 243.986,310.256 243.277 C 311.423 242.006,311.843 242.252,311.947 244.267 M76.545 246.489 C 76.391 246.739,76.461 246.809,76.711 246.655 C 76.949 246.508,77.235 246.533,77.346 246.713 C 77.661 247.222,77.079 247.906,76.200 248.060 C 75.255 248.225,74.797 246.497,75.646 245.972 C 76.298 245.568,76.900 245.915,76.545 246.489 M80.717 252.184 C 81.521 252.987,80.870 254.613,79.700 254.725 C 78.421 254.849,78.400 254.824,78.400 253.182 C 78.400 251.633,79.634 251.101,80.717 252.184 M308.800 253.225 C 308.800 254.838,307.879 255.347,306.522 254.484 C 305.500 253.834,306.558 251.819,307.977 251.712 C 308.679 251.659,308.800 251.882,308.800 253.225 M305.600 259.938 C 305.600 261.218,304.378 261.547,303.527 260.496 C 303.085 259.951,303.091 259.901,303.563 260.186 C 303.993 260.445,304.076 260.333,303.914 259.713 C 303.741 259.054,303.854 258.941,304.513 259.114 C 305.111 259.270,305.240 259.188,305.001 258.801 C 304.786 258.454,304.832 258.373,305.138 258.562 C 305.392 258.719,305.600 259.338,305.600 259.938 M83.156 260.253 C 82.580 260.947,81.600 260.964,81.600 260.280 C 81.600 259.366,82.474 258.763,83.075 259.263 C 83.479 259.597,83.499 259.840,83.156 260.253 M85.300 261.300 C 85.392 261.575,85.662 261.800,85.900 261.800 C 86.456 261.800,87.000 262.344,87.000 262.900 C 87.000 263.138,87.225 263.408,87.500 263.500 C 88.334 263.778,88.062 262.971,86.945 261.855 C 85.829 260.738,85.022 260.466,85.300 261.300 M302.400 266.464 C 302.400 267.411,302.253 267.573,301.500 267.458 C 300.120 267.247,300.385 265.333,301.794 265.333 C 302.192 265.333,302.400 265.720,302.400 266.464 M47.020 267.513 C 46.899 267.634,46.800 267.913,46.800 268.133 C 46.800 268.353,46.920 268.413,47.068 268.266 C 47.427 267.906,48.839 269.213,48.567 269.653 C 48.449 269.844,48.533 270.000,48.753 270.000 C 49.566 270.000,49.409 269.371,48.340 268.346 C 47.735 267.767,47.142 267.392,47.020 267.513 M296.918 271.405 C 296.538 271.817,296.571 271.980,297.075 272.173 C 297.900 272.490,298.161 272.214,297.737 271.471 C 297.461 270.988,297.313 270.977,296.918 271.405 M293.445 277.551 C 292.858 278.199,292.847 278.332,293.362 278.530 C 293.788 278.694,293.888 278.573,293.710 278.110 C 293.526 277.630,293.630 277.526,294.110 277.710 C 294.567 277.886,294.693 277.788,294.537 277.380 C 294.257 276.650,294.260 276.650,293.445 277.551 M292.800 285.200 C 292.800 286.267,292.667 286.400,291.600 286.400 C 290.940 286.400,290.400 286.201,290.400 285.957 C 290.400 285.714,290.648 285.610,290.951 285.726 C 291.254 285.842,291.690 285.750,291.920 285.520 C 292.150 285.290,292.242 284.854,292.126 284.551 C 292.010 284.248,292.114 284.000,292.357 284.000 C 292.601 284.000,292.800 284.540,292.800 285.200 M69.362 342.062 C 69.196 342.330,69.251 342.416,69.493 342.266 C 70.011 341.946,70.902 342.953,70.497 343.401 C 70.333 343.581,70.437 343.592,70.726 343.424 C 71.145 343.182,71.112 342.966,70.564 342.360 C 69.756 341.467,69.733 341.461,69.362 342.062 M291.036 342.360 C 290.519 342.932,290.469 343.196,290.836 343.422 C 291.128 343.603,291.221 343.557,291.066 343.307 C 290.746 342.789,291.753 341.898,292.201 342.303 C 292.381 342.467,292.399 342.375,292.241 342.100 C 291.870 341.456,291.850 341.460,291.036 342.360 M72.562 348.462 C 72.396 348.730,72.451 348.816,72.693 348.666 C 73.211 348.346,74.102 349.353,73.697 349.801 C 73.533 349.981,73.637 349.992,73.926 349.824 C 74.345 349.582,74.312 349.366,73.764 348.760 C 72.956 347.867,72.933 347.861,72.562 348.462 M265.436 358.360 C 264.919 358.932,264.869 359.196,265.236 359.422 C 265.528 359.603,265.621 359.557,265.466 359.307 C 265.146 358.789,266.153 357.898,266.601 358.303 C 266.781 358.467,266.799 358.375,266.641 358.100 C 266.270 357.456,266.250 357.460,265.436 358.360 M247.000 366.800 C 246.264 367.116,246.259 367.146,246.942 367.172 C 247.614 367.197,247.596 367.292,246.742 368.185 C 245.926 369.039,245.779 369.079,245.646 368.485 C 245.511 367.886,245.452 367.900,245.174 368.600 C 244.928 369.220,244.850 369.062,244.828 367.900 C 244.800 366.424,244.824 366.400,246.300 366.428 C 247.503 366.451,247.642 366.524,247.000 366.800 M231.330 376.263 C 231.475 376.408,231.430 376.723,231.231 376.963 C 231.031 377.203,230.853 377.580,230.834 377.800 C 230.815 378.020,230.635 378.200,230.433 378.200 C 230.232 378.200,229.944 378.323,229.794 378.472 C 229.224 379.043,228.400 378.266,228.400 377.157 C 228.400 376.023,230.461 375.394,231.330 376.263 M202.217 386.772 C 201.944 387.214,202.575 387.692,202.944 387.322 C 203.325 386.942,203.254 386.400,202.824 386.400 C 202.617 386.400,202.344 386.568,202.217 386.772 M200.988 388.020 C 200.607 388.635,201.128 389.032,201.642 388.518 C 201.929 388.231,201.936 388.007,201.662 387.839 C 201.439 387.700,201.135 387.782,200.988 388.020 M191.836 390.360 C 191.319 390.932,191.269 391.196,191.636 391.422 C 191.928 391.603,192.021 391.557,191.866 391.307 C 191.546 390.789,192.553 389.898,193.001 390.303 C 193.181 390.467,193.199 390.375,193.041 390.100 C 192.670 389.456,192.650 389.460,191.836 390.360 M117.460 392.273 C 117.317 392.416,117.200 392.713,117.200 392.933 C 117.200 393.153,117.320 393.213,117.468 393.066 C 117.815 392.719,119.244 394.006,118.982 394.429 C 118.872 394.607,119.154 394.724,119.607 394.689 C 120.418 394.628,120.417 394.616,119.541 393.956 C 119.051 393.586,118.441 392.998,118.186 392.648 C 117.930 392.299,117.604 392.130,117.460 392.273 M178.400 393.601 C 177.630 394.378,177.157 394.890,177.349 394.738 C 177.541 394.587,177.975 394.569,178.314 394.699 C 178.683 394.841,178.828 394.769,178.675 394.521 C 178.374 394.035,179.739 392.672,180.132 393.066 C 180.280 393.213,180.400 393.134,180.400 392.890 C 180.400 391.997,179.767 392.222,178.400 393.601 M133.362 396.462 C 133.196 396.730,133.251 396.816,133.493 396.666 C 134.011 396.346,134.902 397.353,134.497 397.801 C 134.333 397.981,134.437 397.992,134.726 397.824 C 135.145 397.582,135.112 397.366,134.564 396.760 C 133.756 395.867,133.733 395.861,133.362 396.462 " stroke="none" fill="#f7592d" fill-rule="evenodd"></path></g></svg>